<?xml version="1.0" encoding="UTF-8" standalone="no"?>
<!-- Created with Inkscape (http://www.inkscape.org/) -->

<svg
   xmlns:dc="http://purl.org/dc/elements/1.1/"
   xmlns:cc="http://creativecommons.org/ns#"
   xmlns:rdf="http://www.w3.org/1999/02/22-rdf-syntax-ns#"
   xmlns:svg="http://www.w3.org/2000/svg"
   xmlns="http://www.w3.org/2000/svg"
   xmlns:sodipodi="http://sodipodi.sourceforge.net/DTD/sodipodi-0.dtd"
   xmlns:inkscape="http://www.inkscape.org/namespaces/inkscape"
   width="4.5in"
   height="5.25in"
   viewBox="0 0 405.00001 472.50001"
   id="svg2"
   version="1.1"
   inkscape:version="0.91 r13725"
   sodipodi:docname="iter.svg">
  <sodipodi:namedview
     id="base"
     pagecolor="#ffffff"
     bordercolor="#666666"
     borderopacity="1.0"
     inkscape:pageopacity="0.0"
     inkscape:pageshadow="2"
     inkscape:zoom="1.9174603"
     inkscape:cx="202.5"
     inkscape:cy="236.25"
     inkscape:document-units="px"
     inkscape:current-layer="layer1"
     showgrid="false"
     units="in"
     inkscape:window-width="1920"
     inkscape:window-height="1108"
     inkscape:window-x="0"
     inkscape:window-y="1"
     inkscape:window-maximized="1" />
  <defs
     id="defs4">
    <marker
       inkscape:isstock="true"
       style="overflow:visible;"
       id="Arrow1Mend"
       refX="0.0"
       refY="0.0"
       orient="auto"
       inkscape:stockid="Arrow1Mend">
      <path
         transform="scale(0.4) rotate(180) translate(10,0)"
         style="fill-rule:evenodd;stroke:#000000;stroke-width:1pt;stroke-opacity:1;fill:#000000;fill-opacity:1"
         d="M 0.0,0.0 L 5.0,-5.0 L -12.5,0.0 L 5.0,5.0 L 0.0,0.0 z "
         id="path4264" />
    </marker>
  </defs>
  <metadata
     id="metadata7">
    <rdf:RDF>
      <cc:Work
         rdf:about="">
        <dc:format>image/svg+xml</dc:format>
        <dc:type
           rdf:resource="http://purl.org/dc/dcmitype/StillImage" />
        <dc:title></dc:title>
      </cc:Work>
    </rdf:RDF>
  </metadata>
  <g
     transform="translate(0,-579.86215)"
     id="layer1"
     inkscape:groupmode="layer"
     inkscape:label="Layer 1">
    <path
       inkscape:connector-curvature="0"
       id="path4147"
       d="m 301.41389,795.25156 -6.59021,-46.13773 21.46575,0 3.72774,45.95995 z"
       style="fill:#746c66;fill-rule:evenodd;stroke:none;stroke-width:1.65911889px;stroke-linecap:butt;stroke-linejoin:miter;stroke-opacity:1;fill-opacity:1"
       sodipodi:nodetypes="ccccc" />
    <path
       inkscape:connector-curvature="0"
       id="path4149"
       d="m 301.41389,796.37168 17.738,-0.43264 -0.86526,44.994 -21.63173,-0.43263 z"
       style="fill:#746c66;fill-rule:evenodd;stroke:none;stroke-width:1.65911889px;stroke-linecap:butt;stroke-linejoin:miter;stroke-opacity:1;fill-opacity:1" />
    <path
       inkscape:connector-curvature="0"
       id="path4151"
       d="m 296.22227,841.7983 -19.90118,41.10028 16.00746,7.78742 25.95808,-48.02243 z"
       style="fill:#746c66;fill-rule:evenodd;stroke:none;stroke-width:1.65911889px;stroke-linecap:butt;stroke-linejoin:miter;stroke-opacity:1;fill-opacity:1" />
    <path
       sodipodi:nodetypes="ccccc"
       inkscape:connector-curvature="0"
       id="path4153"
       d="m 291.89592,891.98389 -16.44011,-8.65268 -27.25597,38.50446 8.20826,13.23392 z"
       style="fill:#746c66;fill-rule:evenodd;stroke:none;stroke-width:1.65911889px;stroke-linecap:butt;stroke-linejoin:miter;stroke-opacity:1;fill-opacity:1" />
    <path
       inkscape:connector-curvature="0"
       id="path4155"
       d="m 248.19984,922.70095 -50.63004,34.17812 8.86031,11.18324 50.42241,-31.94969 z"
       style="fill:#746c66;fill-rule:evenodd;stroke:none;stroke-width:1.65911889px;stroke-linecap:butt;stroke-linejoin:miter;stroke-opacity:1;fill-opacity:1"
       sodipodi:nodetypes="ccccc" />
    <path
       inkscape:connector-curvature="0"
       id="path4157"
       d="m 295.35701,749.21452 20.76644,0 -19.90118,-44.12871 -18.17065,9.08532 z"
       style="fill:#746c66;fill-rule:evenodd;stroke:none;stroke-width:1.65911889px;stroke-linecap:butt;stroke-linejoin:miter;stroke-opacity:1;fill-opacity:1" />
    <path
       inkscape:connector-curvature="0"
       id="path4159"
       d="m 278.05162,712.4406 -21.63173,-29.85178 17.30539,-9.51797 22.06436,30.71705 z"
       style="fill:#746c66;fill-rule:evenodd;stroke:none;stroke-width:1.65911889px;stroke-linecap:butt;stroke-linejoin:miter;stroke-opacity:1;fill-opacity:1" />
    <path
       inkscape:connector-curvature="0"
       id="path4161"
       d="m 256.24213,682.07911 -37.02879,-32.80316 12.97902,-14.70956 41.45584,38.60516 z"
       style="fill:#746c66;fill-rule:evenodd;stroke:none;stroke-width:1.65911889px;stroke-linecap:butt;stroke-linejoin:miter;stroke-opacity:1;fill-opacity:1"
       sodipodi:nodetypes="ccccc" />
    <path
       inkscape:connector-curvature="0"
       id="path4163"
       d="m 218.78069,647.54543 12.54641,-14.27695 -39.36973,-27.25598 -8.65271,12.97904 z"
       style="fill:#746c66;fill-rule:evenodd;stroke:none;stroke-width:1.65911889px;stroke-linecap:butt;stroke-linejoin:miter;stroke-opacity:1;fill-opacity:1" />
    <path
       inkscape:connector-curvature="0"
       id="path4165"
       d="m 183.30466,618.55891 -34.17811,-5.19162 2.16317,-14.27693 39.36973,6.48951 z"
       style="fill:#746c66;fill-rule:evenodd;stroke:none;stroke-width:1.65911889px;stroke-linecap:butt;stroke-linejoin:miter;stroke-opacity:1;fill-opacity:1" />
    <path
       inkscape:connector-curvature="0"
       id="path4167"
       d="m 117.97686,630.67267 -12.54639,-10.81586 45.87107,-20.84353 -2.17499,14.35401 z"
       style="fill:#746c66;fill-rule:evenodd;stroke:none;stroke-width:1.65911889px;stroke-linecap:butt;stroke-linejoin:miter;stroke-opacity:1;fill-opacity:1"
       sodipodi:nodetypes="ccccc" />
    <path
       inkscape:connector-curvature="0"
       id="path4169"
       d="m 117.11159,631.97058 -12.11376,-10.81586 -17.305386,43.69608 19.035916,0.43263 z"
       style="fill:#746c66;fill-rule:evenodd;stroke:none;stroke-width:1.65911889px;stroke-linecap:butt;stroke-linejoin:miter;stroke-opacity:1;fill-opacity:1" />
    <path
       id="rect4171"
       d="m 107.06032,664.76192 -20.665771,0.52153 0,44.99399 23.794901,0 z"
       style="opacity:1;fill:#746c66;fill-opacity:1;stroke:none;stroke-width:2.07389855;stroke-linecap:butt;stroke-linejoin:miter;stroke-miterlimit:4;stroke-dasharray:none;stroke-dashoffset:0;stroke-opacity:1"
       inkscape:connector-curvature="0"
       sodipodi:nodetypes="ccccc" />
    <path
       id="rect4173"
       d="m 110.18945,710.71002 -24.227533,0 -0.521528,44.48428 23.706021,-1.04305 z"
       style="opacity:1;fill:#746c66;fill-opacity:1;stroke:none;stroke-width:2.07389855;stroke-linecap:butt;stroke-linejoin:miter;stroke-miterlimit:4;stroke-dasharray:none;stroke-dashoffset:0;stroke-opacity:1"
       inkscape:connector-curvature="0"
       sodipodi:nodetypes="ccccc" />
    <path
       id="rect4175"
       d="m 109.7568,754.8388 -24.227532,0 0,41.53293 24.227532,0 z"
       style="opacity:1;fill:#746c66;fill-opacity:1;stroke:none;stroke-width:2.07389855;stroke-linecap:butt;stroke-linejoin:miter;stroke-miterlimit:4;stroke-dasharray:none;stroke-dashoffset:0;stroke-opacity:1"
       inkscape:connector-curvature="0" />
    <path
       id="rect4177"
       d="m 110.18945,796.80428 -24.660165,0 0,43.26343 24.660165,0 z"
       style="opacity:1;fill:#746c66;fill-opacity:1;stroke:none;stroke-width:2.07389855;stroke-linecap:butt;stroke-linejoin:miter;stroke-miterlimit:4;stroke-dasharray:none;stroke-dashoffset:0;stroke-opacity:1"
       inkscape:connector-curvature="0" />
    <path
       id="rect4179"
       d="m 110.62208,840.06774 -25.525427,0 0,44.12872 25.525427,0 z"
       style="opacity:1;fill:#746c66;fill-opacity:1;stroke:none;stroke-width:2.07389855;stroke-linecap:butt;stroke-linejoin:miter;stroke-miterlimit:4;stroke-dasharray:none;stroke-dashoffset:0;stroke-opacity:1"
       inkscape:connector-curvature="0" />
    <path
       inkscape:connector-curvature="0"
       id="path4183"
       d="m 206.66693,968.12756 -33.31285,52.78144 -5.19162,0.4326 -0.86526,-40.66763 29.85178,-22.92962 z"
       style="fill:#746c66;fill-rule:evenodd;stroke:none;stroke-width:1.65911889px;stroke-linecap:butt;stroke-linejoin:miter;stroke-opacity:1;fill-opacity:1" />
    <path
       inkscape:connector-curvature="0"
       id="path4185"
       d="m 166.43192,1020.909 -51.4835,-15.5749 -6.05688,14.7096 54.07931,15.5748 z"
       style="fill:#746c66;fill-rule:evenodd;stroke:none;stroke-width:1.65911889px;stroke-linecap:butt;stroke-linejoin:miter;stroke-opacity:1;fill-opacity:1" />
    <path
       inkscape:connector-curvature="0"
       id="path4187"
       d="m 114.08315,1005.7668 -7.35479,-16.44014 -18.170636,-3.46107 18.603266,35.04341 z"
       style="fill:#746c66;fill-rule:evenodd;stroke:none;stroke-width:1.65911889px;stroke-linecap:butt;stroke-linejoin:miter;stroke-opacity:1;fill-opacity:1" />
    <path
       inkscape:connector-curvature="0"
       id="path4189"
       d="m 108.02627,988.46139 16.87275,-37.20657 -12.97904,-17.30537 -22.06436,0.43263 z"
       style="fill:#746c66;fill-rule:evenodd;stroke:none;stroke-width:1.65911889px;stroke-linecap:butt;stroke-linejoin:miter;stroke-opacity:1;fill-opacity:1" />
    <path
       inkscape:connector-curvature="0"
       id="path4191"
       d="m 122.30321,632.83584 22.49699,21.63173 23.7949,32.01495 13.8443,25.95808 10.38323,31.14968 3.46107,40.23501 -2.16318,39.80236 -12.97902,37.20657 -16.87275,36.34129 -33.74549,35.90868 -8.22005,8.65268"
       style="fill:none;fill-rule:evenodd;stroke:#b3b3b3;stroke-width:0.5;stroke-linecap:butt;stroke-linejoin:miter;stroke-opacity:1;stroke-miterlimit:4;stroke-dasharray:none" />
    <path
       inkscape:connector-curvature="0"
       id="path4193"
       d="m 112.78526,657.92864 18.60327,28.12125 12.11377,26.82334 9.51795,31.58231 3.46109,38.50447 -3.46109,37.20657 -10.38323,37.20657 -15.1422,35.47603 -16.00748,22.49698"
       style="fill:none;fill-rule:evenodd;stroke:#cccccc;stroke-width:0.5;stroke-linecap:butt;stroke-linejoin:miter;stroke-opacity:1;stroke-miterlimit:4;stroke-dasharray:none" />
    <path
       inkscape:connector-curvature="0"
       id="path4195"
       d="m 135.28225,620.28945 31.14967,7.35478 28.98652,25.09281 31.5823,32.44757 18.17066,29.41915 12.97904,31.14969 4.32635,42.39817 -4.75899,43.69608 -14.70958,37.63921 -23.79488,36.77394 -41.53292,35.47602 -21.63173,10.38323 -9.95058,18.17064 -1.73055,43.69606"
       style="fill:none;fill-rule:evenodd;stroke:#666666;stroke-width:0.5;stroke-linecap:butt;stroke-linejoin:miter;stroke-opacity:1;stroke-miterlimit:4;stroke-dasharray:none" />
    <path
       inkscape:connector-curvature="0"
       id="path4197"
       d="m 130.52326,1007.4973 -0.86526,-48.88769 6.48951,-10.81586 17.30537,-8.22005 41.53293,-37.63921 20.33381,-36.77392 14.27693,-40.23501 5.19162,-38.50447 -5.62425,-39.80237 -12.54639,-32.44759 -16.44011,-29.41915 -17.73802,-19.46855 -22.06436,-24.66016 -17.30537,-14.70957 -8.6527,-4.32635"
       style="fill:none;fill-rule:evenodd;stroke:#999999;stroke-width:0.5;stroke-linecap:butt;stroke-linejoin:miter;stroke-opacity:1;stroke-miterlimit:4;stroke-dasharray:none" />
    <path
       inkscape:connector-curvature="0"
       id="path4199"
       d="m 159.50978,1017.4479 1.29789,-45.42662 11.68113,-16.00747 19.03592,-6.92216 44.99399,-36.34129 26.39071,-38.07184 17.30537,-39.80238 5.62425,-44.99397 -6.05688,-43.69609 -13.8443,-31.58232 -22.06436,-29.85178 -29.85178,-29.41913 -38.93711,-32.44759 -19.03592,-7.78742"
       style="fill:none;fill-rule:evenodd;stroke:#4d4d4d;stroke-width:0.5;stroke-linecap:butt;stroke-linejoin:miter;stroke-opacity:1;stroke-miterlimit:4;stroke-dasharray:none" />
    <path
       id="rect4181"
       d="m 111.05471,884.19641 -25.525442,0 4.172187,49.4981 21.353255,-1.04304 z"
       style="opacity:1;fill:#746c66;fill-opacity:1;stroke:none;stroke-width:2.07389855;stroke-linecap:butt;stroke-linejoin:miter;stroke-miterlimit:4;stroke-dasharray:none;stroke-dashoffset:0;stroke-opacity:1"
       inkscape:connector-curvature="0"
       sodipodi:nodetypes="ccccc" />
    <path
       id="path4236"
       transform="translate(0,579.86215)"
       d="M 110.83789 163.23633 L 110.83789 237.0332 C 110.83789 237.0332 134.3853 237.65146 158.19727 250.69141 A 35.463577 35.463577 0 0 0 184.89258 262.84766 A 35.463577 35.463577 0 0 0 220.35742 227.38477 A 35.463577 35.463577 0 0 0 205.22266 198.37695 C 171.1286 168.13943 110.83789 163.23633 110.83789 163.23633 z "
       style="opacity:1;fill:#7ed0e0;fill-opacity:0.49019608;stroke:none;stroke-width:1.25;stroke-linecap:butt;stroke-linejoin:miter;stroke-miterlimit:4;stroke-dasharray:none;stroke-dashoffset:0;stroke-opacity:1" />
    <path
       inkscape:connector-curvature="0"
       id="path4249"
       d="m 263.95231,799.51449 20.94336,6.19532 -21.05469,5.80273 4.47657,-4.39258 -42.23828,-0.45898 0.0234,-3 42.37305,0.46094 -4.52344,-4.60743 z"
       style="color:#000000;font-style:normal;font-variant:normal;font-weight:normal;font-stretch:normal;font-size:medium;line-height:normal;font-family:sans-serif;text-indent:0;text-align:start;text-decoration:none;text-decoration-line:none;text-decoration-style:solid;text-decoration-color:#000000;letter-spacing:normal;word-spacing:normal;text-transform:none;direction:ltr;block-progression:tb;writing-mode:lr-tb;baseline-shift:baseline;text-anchor:start;white-space:normal;clip-rule:nonzero;display:inline;overflow:visible;visibility:visible;opacity:1;isolation:auto;mix-blend-mode:normal;color-interpolation:sRGB;color-interpolation-filters:linearRGB;solid-color:#000000;solid-opacity:1;fill:#000000;fill-opacity:1;fill-rule:evenodd;stroke:none;stroke-width:3;stroke-linecap:butt;stroke-linejoin:miter;stroke-miterlimit:4;stroke-dasharray:none;stroke-dashoffset:0;stroke-opacity:1;color-rendering:auto;image-rendering:auto;shape-rendering:auto;text-rendering:auto;enable-background:accumulate" />
    <text
       sodipodi:linespacing="125%"
       id="text4542"
       y="794.72974"
       x="233.21275"
       style="font-style:normal;font-variant:normal;font-weight:normal;font-stretch:normal;font-size:17.5px;line-height:125%;font-family:sans-serif;-inkscape-font-specification:sans-serif;text-align:start;letter-spacing:0px;word-spacing:0px;writing-mode:lr-tb;text-anchor:start;fill:#000000;fill-opacity:1;stroke:none;stroke-width:1px;stroke-linecap:butt;stroke-linejoin:miter;stroke-opacity:1"
       xml:space="preserve"><tspan
         y="794.72974"
         x="233.21275"
         id="tspan4544"
         sodipodi:role="line">$S\left(\vec{x},t\right)$</tspan></text>
  </g>
</svg>
