<?xml version="1.0" encoding="UTF-8" standalone="no"?>
<!-- Created with Inkscape (http://www.inkscape.org/) -->

<svg
   xmlns:dc="http://purl.org/dc/elements/1.1/"
   xmlns:cc="http://creativecommons.org/ns#"
   xmlns:rdf="http://www.w3.org/1999/02/22-rdf-syntax-ns#"
   xmlns:svg="http://www.w3.org/2000/svg"
   xmlns="http://www.w3.org/2000/svg"
   xmlns:sodipodi="http://sodipodi.sourceforge.net/DTD/sodipodi-0.dtd"
   xmlns:inkscape="http://www.inkscape.org/namespaces/inkscape"
   width="810"
   height="630"
   id="svg3309"
   version="1.1"
   inkscape:version="0.48.4 r9939"
   sodipodi:docname="Formal_Chapter_Slide_Outer_Data.svg">
  <defs
     id="defs3311" />
  <sodipodi:namedview
     id="base"
     pagecolor="#ffffff"
     bordercolor="#666666"
     borderopacity="1.0"
     inkscape:pageopacity="0.0"
     inkscape:pageshadow="2"
     inkscape:zoom="0.78333333"
     inkscape:cx="228.5851"
     inkscape:cy="315"
     inkscape:document-units="px"
     inkscape:current-layer="layer1"
     showgrid="false"
     units="in"
     inkscape:window-width="1920"
     inkscape:window-height="1176"
     inkscape:window-x="0"
     inkscape:window-y="24"
     inkscape:window-maximized="1" />
  <metadata
     id="metadata3314">
    <rdf:RDF>
      <cc:Work
         rdf:about="">
        <dc:format>image/svg+xml</dc:format>
        <dc:type
           rdf:resource="http://purl.org/dc/dcmitype/StillImage" />
        <dc:title />
      </cc:Work>
    </rdf:RDF>
  </metadata>
  <g
     inkscape:label="Layer 1"
     inkscape:groupmode="layer"
     id="layer1"
     transform="translate(0,-422.35975)">
    <path
       style="fill:#a7a9ac;fill-opacity:1;fill-rule:nonzero;stroke:none"
       d="M 315.375 0 L 305.65625 55.34375 L 497.5625 89.40625 L 581.375 74.53125 L 591.625 72.71875 L 601.875 70.875 L 623.8125 67 L 630.28125 65.84375 L 630.6875 63.5 L 632.34375 53.9375 L 632.46875 53.25 L 632.59375 52.5625 L 630.03125 52.09375 L 619.75 50.28125 L 609.5 48.46875 L 546.3125 37.25 L 527.0625 33.84375 L 507.78125 30.40625 L 336.4375 0 L 328.4375 0 L 507.53125 31.78125 L 526.8125 35.1875 L 546.09375 38.625 L 609.25 49.8125 L 619.5 51.65625 L 629.75 53.46875 L 631 53.6875 L 629.3125 63.25 L 629.0625 64.65625 L 623.5625 65.625 L 601.625 69.53125 L 591.375 71.34375 L 581.125 73.15625 L 497.5625 87.96875 L 307.28125 54.21875 L 316.8125 0 L 315.375 0 z M 478.4375 0 L 512 19.40625 L 595.84375 34.21875 L 606.125 36.0625 L 616.375 37.875 L 644.78125 42.875 L 651.5 31.21875 L 597.53125 0 L 594.75 0 L 649.59375 31.75 L 644.0625 41.34375 L 616.625 36.5 L 606.375 34.6875 L 596.09375 32.875 L 512.5 18.09375 L 481.21875 0 L 478.4375 0 z M 621.15625 0 L 666.3125 26.0625 L 666.6875 25.75 L 676.625 17.4375 L 662 0 L 660.1875 0 L 674.65625 17.25 L 666.15625 24.375 L 623.9375 0 L 621.15625 0 z M 677.375 0 L 688.03125 12.65625 L 691.75 17.09375 L 691.75 17.8125 L 694.46875 16.84375 L 703.5625 13.53125 L 704.21875 13.3125 L 704.875 13.0625 L 704 10.59375 L 700.40625 0.8125 L 700.125 0 L 698.65625 0 L 699.125 1.28125 L 702.6875 11.0625 L 703.09375 12.21875 L 703.09375 12.25 L 694 15.53125 L 692.6875 16.03125 L 689.09375 11.75 L 679.21875 0 L 677.375 0 z M 712.59375 0 L 717.125 12.28125 L 719.375 18.4375 L 721.75 18.4375 L 731.53125 18.4375 L 732.21875 18.4375 L 732.9375 18.4375 L 732.9375 15.8125 L 732.9375 5.40625 L 732.9375 0 L 731.53125 0 L 731.53125 5.40625 L 731.53125 15.8125 L 731.53125 17.03125 L 721.78125 17.03125 L 720.34375 17.03125 L 718.4375 11.8125 L 714.09375 0 L 712.59375 0 z M 744.15625 0 L 744.15625 22.1875 L 744.15625 28.71875 L 746.40625 29.5625 L 755.53125 32.84375 L 756.1875 33.09375 L 756.84375 33.34375 L 757.71875 30.875 L 761.3125 21.0625 L 764.90625 11.28125 L 769.03125 0 L 767.53125 0 L 763.59375 10.8125 L 760 20.59375 L 756.4375 30.375 L 756 31.53125 L 746.875 28.25 L 745.5625 27.75 L 745.5625 22.1875 L 745.5625 0 L 744.15625 0 z M 781.59375 0 L 781.46875 0.34375 L 777.90625 10.125 L 774.3125 19.9375 L 766.6875 40.875 L 764.4375 47.03125 L 766.25 48.5625 L 773.6875 54.78125 L 774.21875 55.25 L 774.75 55.6875 L 776.4375 53.65625 L 783.15625 45.6875 L 789.875 37.6875 L 810 13.71875 L 810 11.53125 L 788.78125 36.8125 L 782.09375 44.78125 L 775.375 52.78125 L 774.59375 53.71875 L 774.5625 53.71875 L 767.15625 47.5 L 766.09375 46.59375 L 768 41.375 L 775.625 20.40625 L 779.1875 10.59375 L 782.78125 0.8125 L 783.0625 0 L 781.59375 0 z M 810 32.09375 L 809.25 33 L 802.53125 41 L 795.84375 49 L 781.5 66.125 L 777.28125 71.125 L 778.46875 73.1875 L 783.3125 81.5625 L 783.65625 82.1875 L 784 82.78125 L 786.3125 81.46875 L 795.3125 76.25 L 804.34375 71.03125 L 810 67.75 L 810 66.1875 L 803.65625 69.84375 L 794.625 75.03125 L 785.59375 80.25 L 784.53125 80.875 L 779.6875 72.5 L 779 71.28125 L 782.5625 67 L 796.90625 49.90625 L 803.59375 41.90625 L 810 34.28125 L 810 32.09375 z M 622.25 78.8125 L 619.6875 79.28125 L 609.4375 81.09375 L 599.15625 82.90625 L 536 94.09375 L 516.71875 97.53125 L 497.4375 100.9375 L 305.6875 134.90625 L 316 193.8125 L 507.90625 159.8125 L 581.59375 117.0625 L 590.625 111.84375 L 599.625 106.59375 L 618.9375 95.40625 L 624.59375 92.09375 L 624.1875 89.78125 L 622.5 80.1875 L 622.375 79.5 L 622.25 78.8125 z M 621.125 80.4375 L 622.8125 90 L 623.0625 91.40625 L 618.21875 94.1875 L 598.9375 105.40625 L 589.90625 110.625 L 580.90625 115.84375 L 507.40625 158.46875 L 317.125 192.1875 L 307.28125 136.03125 L 497.6875 102.3125 L 516.96875 98.90625 L 536.21875 95.46875 L 599.40625 84.28125 L 609.65625 82.46875 L 619.9375 80.65625 L 621.125 80.4375 z M 810 81.375 L 806.125 83.625 L 786.84375 94.8125 L 781.15625 98.09375 L 781.5625 100.4375 L 783.25 109.96875 L 783.375 110.6875 L 783.5 111.375 L 786.09375 110.90625 L 796.34375 109.09375 L 806.59375 107.28125 L 810 106.6875 L 810 105.25 L 806.375 105.90625 L 796.09375 107.71875 L 785.84375 109.5625 L 784.625 109.78125 L 784.625 109.75 L 782.9375 100.1875 L 782.6875 98.8125 L 787.53125 96 L 806.84375 84.8125 L 810 82.96875 L 810 81.375 z M 621.75 107.40625 L 619.46875 108.71875 L 610.4375 113.9375 L 601.4375 119.15625 L 545.84375 151.3125 L 528.875 161.125 L 511.90625 170.90625 L 343.15625 268.5 L 372.9375 320.125 L 541.8125 222.5 L 596.53125 157.1875 L 603.25 149.1875 L 609.9375 141.1875 L 624.25 124.09375 L 628.46875 119.0625 L 627.28125 117 L 622.4375 108.625 L 622.09375 108 L 621.75 107.40625 z M 621.25 109.3125 L 626.09375 117.71875 L 626.78125 118.90625 L 623.1875 123.1875 L 608.875 140.3125 L 602.15625 148.28125 L 595.46875 156.28125 L 540.875 221.4375 L 373.4375 318.25 L 345.0625 269 L 512.59375 172.125 L 529.5625 162.3125 L 546.53125 152.5 L 602.125 120.375 L 611.15625 115.15625 L 620.1875 109.9375 L 621.25 109.3125 z M 810 118.21875 L 803.875 119.3125 L 781.9375 123.21875 L 775.5 124.34375 L 775.09375 126.6875 L 773.40625 136.25 L 773.28125 136.96875 L 773.15625 137.65625 L 775.75 138.09375 L 786 139.9375 L 796.25 141.75 L 810 144.1875 L 810 142.75 L 796.5 140.375 L 786.25 138.5625 L 776 136.71875 L 774.78125 136.53125 L 774.78125 136.5 L 776.4375 126.9375 L 776.6875 125.53125 L 782.1875 124.5625 L 804.125 120.6875 L 810 119.65625 L 810 118.21875 z M 631 134.53125 L 629.3125 136.53125 L 622.625 144.5 L 615.90625 152.5 L 574.625 201.6875 L 562 216.6875 L 549.40625 231.71875 L 424.03125 381.03125 L 469.6875 419.3125 L 595.15625 269.90625 L 624.3125 189.84375 L 627.875 180.0625 L 631.46875 170.28125 L 639.09375 149.3125 L 641.3125 143.15625 L 639.5 141.625 L 632.09375 135.40625 L 631.5625 134.96875 L 631 134.53125 z M 631.1875 136.46875 L 638.59375 142.6875 L 639.6875 143.59375 L 637.78125 148.84375 L 630.125 169.78125 L 626.5625 179.59375 L 623 189.375 L 593.9375 269.21875 L 469.5 417.375 L 425.96875 380.84375 L 550.46875 232.59375 L 563.0625 217.59375 L 575.6875 202.59375 L 616.96875 153.40625 L 623.6875 145.40625 L 630.40625 137.4375 L 631.1875 136.46875 z M 760.96875 147.3125 L 759.78125 149.375 L 754.96875 157.75 L 754.59375 158.375 L 754.25 158.96875 L 756.53125 160.28125 L 765.5625 165.53125 L 774.5625 170.71875 L 810 191.25 L 810 189.625 L 775.28125 169.53125 L 766.25 164.3125 L 757.21875 159.09375 L 756.15625 158.46875 L 760.96875 150.0625 L 761.6875 148.875 L 767.1875 149.8125 L 789.125 153.71875 L 799.40625 155.53125 L 809.65625 157.34375 L 810 157.40625 L 810 156 L 809.90625 155.96875 L 799.65625 154.15625 L 789.375 152.34375 L 767.4375 148.46875 L 760.96875 147.3125 z M 648.9375 156.875 L 648.03125 159.34375 L 644.4375 169.125 L 640.875 178.90625 L 618.84375 239.21875 L 612.125 257.59375 L 605.40625 276 L 538.5 459.03125 L 594.6875 479.40625 L 661.59375 296.25 L 661.59375 211.125 L 661.59375 200.71875 L 661.59375 190.3125 L 661.59375 168 L 661.59375 161.46875 L 659.34375 160.65625 L 650.21875 157.34375 L 649.59375 157.09375 L 648.9375 156.875 z M 649.75 158.65625 L 658.875 161.9375 L 660.21875 162.4375 L 660.21875 168 L 660.21875 190.3125 L 660.21875 200.71875 L 660.21875 211.125 L 660.21875 296 L 593.84375 477.625 L 540.3125 458.21875 L 606.6875 276.46875 L 613.4375 258.09375 L 620.15625 239.6875 L 642.1875 179.375 L 645.75 169.59375 L 649.34375 159.8125 L 649.75 158.65625 z M 739.4375 164.125 L 737.625 165.65625 L 730.21875 171.875 L 729.6875 172.3125 L 729.125 172.78125 L 730.84375 174.78125 L 737.53125 182.78125 L 744.25 190.75 L 785.53125 239.96875 L 798.15625 254.96875 L 810 269.0625 L 810 266.9375 L 799.1875 254.0625 L 786.59375 239.0625 L 745.3125 189.875 L 738.59375 181.875 L 731.90625 173.90625 L 731.09375 172.9375 L 731.125 172.9375 L 738.53125 166.71875 L 739.59375 165.8125 L 744.4375 168.625 L 763.75 179.78125 L 772.78125 184.96875 L 781.8125 190.1875 L 810 206.46875 L 810 204.84375 L 782.53125 189 L 773.46875 183.78125 L 764.4375 178.5625 L 745.125 167.40625 L 739.4375 164.125 z M 672.84375 171.75 L 672.84375 174.40625 L 672.84375 184.8125 L 672.84375 195.21875 L 672.84375 259.34375 L 672.84375 278.90625 L 672.84375 298.46875 L 672.84375 493.125 L 732.9375 493.125 L 732.9375 298.34375 L 732.875 298.21875 L 703.53125 218.40625 L 699.9375 208.625 L 696.34375 198.84375 L 688.65625 177.90625 L 686.375 171.75 L 684 171.75 L 674.21875 171.75 L 673.53125 171.75 L 672.84375 171.75 z M 713.53125 172.625 L 711.28125 173.4375 L 702.1875 176.75 L 701.53125 176.96875 L 700.875 177.21875 L 701.78125 179.6875 L 705.34375 189.5 L 708.90625 199.28125 L 730.90625 259.5625 L 737.625 277.96875 L 744.34375 296.375 L 810 476.25 L 810 472.21875 L 745.65625 295.875 L 738.9375 277.5 L 732.21875 259.09375 L 710.21875 198.78125 L 706.65625 189 L 703.09375 179.21875 L 702.65625 178.0625 L 711.78125 174.71875 L 713.09375 174.25 L 716.6875 178.53125 L 731.03125 195.59375 L 737.75 203.59375 L 744.46875 211.5625 L 799.1875 276.59375 L 810 306.21875 L 810 302.1875 L 800.40625 275.90625 L 745.53125 210.65625 L 738.8125 202.6875 L 732.125 194.71875 L 717.75 177.65625 L 713.53125 172.625 z M 674.21875 173.15625 L 684 173.15625 L 685.40625 173.15625 L 687.34375 178.40625 L 695.03125 199.3125 L 698.625 209.125 L 702.21875 218.90625 L 731.53125 298.5625 L 731.53125 491.75 L 674.21875 491.75 L 674.21875 298.46875 L 674.21875 278.90625 L 674.21875 259.34375 L 674.21875 195.21875 L 674.21875 184.8125 L 674.21875 174.40625 L 674.21875 173.15625 z "
       transform="translate(0,422.35975)"
       id="path82" />
    <rect
       style="fill:#746c66;fill-opacity:1;fill-rule:nonzero;stroke:none"
       id="rect3005"
       width="22.5"
       height="45.900002"
       x="393.75"
       y="1006.4597" />
    <path
       id="path5152"
       style="fill:none;stroke:#e3ae24;stroke-width:0.99570757px;stroke-linecap:butt;stroke-linejoin:miter;stroke-opacity:1"
       d="m 808.12181,736.8619 1.37018,-2.35915 m -5.65582,2.35851 5.64181,-9.71402 m -9.92818,9.71466 9.9472,-17.12711 m -14.2332,17.12711 14.21831,-24.4811 m -18.50394,24.48046 18.50462,-31.86125 m -22.79098,31.86189 22.80884,-39.27232 m -27.09485,39.27232 27.07999,-46.62631 m -31.36562,46.62567 31.36746,-54.00846 m -35.65382,54.0091 35.65703,-61.39426 m -39.94301,61.39426 39.92812,-68.74825 m -44.21376,68.74761 44.23028,-76.15569 m -48.51664,76.15633 48.51867,-83.53946 m -52.80467,83.53946 52.78978,-90.89345 m -57.07543,90.89281 57.09313,-98.30292 M 748.11782,736.8619 809.48465,631.20051 M 743.83182,736.8619 809.48328,623.82324 m -69.9371,113.03802 69.95597,-120.45015 M 735.25982,736.8619 809.48832,609.05529 M 730.97382,736.8619 808.80185,602.85761 M 726.68818,736.86126 804.5155,602.8582 M 722.40182,736.8619 800.22985,602.85761 M 718.11582,736.8619 795.94385,602.85761 M 713.83018,736.86126 791.6575,602.8582 M 709.54382,736.8619 787.37185,602.85761 M 705.25782,736.8619 783.08585,602.85761 M 700.97218,736.86126 778.7995,602.8582 M 696.68583,736.8619 774.51385,602.85761 M 692.39983,736.8619 770.22785,602.85761 M 688.11419,736.86126 765.94151,602.8582 M 683.82784,736.8619 761.65587,602.85761 M 679.54184,736.8619 757.36987,602.85761 M 675.2562,736.86126 753.08352,602.8582 M 670.96983,736.8619 748.79787,602.85761 M 666.68383,736.8619 744.51187,602.85761 M 662.39819,736.86126 740.22552,602.8582 M 658.11183,736.8619 735.93987,602.85761 M 653.82583,736.8619 731.65387,602.85761 M 649.54019,736.86126 727.36751,602.8582 M 645.25383,736.8619 723.08186,602.85761 M 640.96783,736.8619 718.79586,602.85761 M 636.68219,736.86126 714.50951,602.8582 M 632.39583,736.8619 710.22386,602.85761 M 628.10983,736.8619 705.93786,602.85761 M 623.82419,736.86126 701.65151,602.8582 M 619.53784,736.8619 697.36586,602.85761 M 615.25184,736.8619 693.07986,602.85761 M 610.9662,736.86126 688.79352,602.8582 M 606.67984,736.8619 684.50787,602.85761 M 602.39384,736.8619 680.22187,602.85761 M 598.10821,736.86126 675.93553,602.8582 M 593.82185,736.8619 671.64988,602.85761 M 589.53585,736.8619 667.36388,602.85761 M 585.2502,736.86126 663.07753,602.8582 M 580.96384,736.8619 658.79188,602.85761 M 576.67784,736.8619 654.50588,602.85761 M 572.3922,736.86126 650.21953,602.8582 M 568.10584,736.8619 645.93388,602.85761 M 563.81984,736.8619 641.64787,602.85761 M 559.5342,736.86126 637.36152,602.8582 M 555.24784,736.8619 633.07587,602.85761 M 550.96184,736.8619 628.78987,602.85761 M 546.6762,736.86126 624.50352,602.8582 M 542.38985,736.8619 620.21787,602.85761 M 538.10385,736.8619 615.93188,602.85761 M 533.81821,736.86126 611.64553,602.8582 M 529.53185,736.8619 607.35988,602.85761 M 525.24585,736.8619 603.07388,602.85761 M 520.96021,736.86126 598.78753,602.8582 M 516.67385,736.8619 594.50188,602.85761 M 512.38786,736.8619 590.21589,602.85761 M 508.10222,736.86126 585.92954,602.8582 M 503.81586,736.8619 581.64389,602.85761 M 499.52985,736.8619 577.35789,602.85761 M 495.24421,736.86126 573.07154,602.8582 M 490.95785,736.8619 568.78589,602.85761 M 486.67185,736.8619 564.49989,602.85761 M 482.38621,736.86126 560.21353,602.8582 M 478.09985,736.8619 555.92788,602.85761 M 473.81385,736.8619 551.64188,602.85761 M 469.52821,736.86126 547.35553,602.8582 M 465.24186,736.8619 543.06988,602.85761 M 460.95586,736.8619 538.78389,602.85761 M 456.67022,736.86126 534.49754,602.8582 M 452.38386,736.8619 530.21189,602.85761 M 448.09786,736.8619 525.92589,602.85761 M 443.81222,736.86126 521.63954,602.8582 M 439.52586,736.8619 517.35389,602.85761 M 435.23986,736.8619 513.06789,602.85761 M 430.95422,736.86126 508.78154,602.8582 M 426.66787,736.8619 504.4959,602.85761 M 422.38187,736.8619 500.2099,602.85761 M 418.09624,736.86126 495.92355,602.8582 M 413.80986,736.8619 491.6379,602.85761 M 409.52386,736.8619 487.3519,602.85761 M 405.23823,736.86126 483.06555,602.8582 M 400.95186,736.8619 478.7799,602.85761 M 396.66587,736.8619 474.49389,602.85761 M 392.38024,736.86126 470.20754,602.8582 M 388.09387,736.8619 465.9219,602.85761 M 383.80787,736.8619 461.6359,602.85761 M 379.52224,736.86126 457.34955,602.8582 M 375.23587,736.8619 453.0639,602.85761 M 370.94987,736.8619 448.7779,602.85761 M 366.66424,736.86126 444.49155,602.8582 M 362.37787,736.8619 440.2059,602.85761 M 358.09187,736.8619 435.9199,602.85761 M 353.80624,736.86126 431.63355,602.8582 M 349.51987,736.8619 427.3479,602.85761 M 345.23387,736.8619 423.0619,602.85761 M 340.94825,736.86126 418.77556,602.8582 M 336.66188,736.8619 414.48991,602.85761 M 332.37587,736.8619 410.20391,602.85761 M 328.09024,736.86126 405.91756,602.8582 M 323.80387,736.8619 401.63191,602.85761 M 319.51788,736.8619 397.34591,602.85761 M 315.23225,736.86126 393.05957,602.8582 M 310.94588,736.8619 388.77391,602.85761 M 306.65988,736.8619 384.48791,602.85761 M 302.37425,736.86126 380.20156,602.8582 M 298.08788,736.8619 375.91591,602.85761 M 293.80188,736.8619 371.62991,602.85761 M 289.51625,736.86126 367.34356,602.8582 M 285.22988,736.8619 363.05791,602.85761 M 280.94388,736.8619 358.77191,602.85761 M 276.65825,736.86126 354.48556,602.8582 M 272.37188,736.8619 350.19991,602.85761 M 268.08588,736.8619 345.91391,602.85761 M 263.79988,736.8619 341.62791,602.85761 M 259.51388,736.8619 337.34191,602.85761 M 255.22789,736.8619 333.05592,602.85761 M 250.94189,736.8619 328.76992,602.85761 M 246.65588,736.8619 324.48392,602.85761 M 242.36989,736.8619 320.19792,602.85761 M 238.08389,736.8619 315.91193,602.85761 M 233.79789,736.8619 311.62593,602.85761 M 229.51189,736.8619 307.33993,602.85761 M 225.22589,736.8619 303.05392,602.85761 M 220.93989,736.8619 298.76792,602.85761 M 216.65389,736.8619 294.48192,602.85761 M 212.36789,736.8619 290.19592,602.85761 M 208.08189,736.8619 285.90992,602.85761 M 203.79589,736.8619 281.62392,602.85761 M 199.50989,736.8619 277.33792,602.85761 M 195.22389,736.8619 273.05192,602.85761 M 190.93789,736.8619 268.76592,602.85761 M 186.65189,736.8619 264.47992,602.85761 M 182.36589,736.8619 260.19392,602.85761 M 178.08026,736.86126 255.90757,602.8582 M 173.79389,736.8619 251.62192,602.85761 M 169.50791,736.8619 247.33593,602.85761 M 165.22228,736.86126 243.04959,602.8582 M 160.9359,736.8619 238.76394,602.85761 M 156.6499,736.8619 234.47794,602.85761 M 152.36427,736.86126 230.19159,602.8582 M 148.0779,736.8619 225.90594,602.85761 M 143.7919,736.8619 221.61993,602.85761 M 139.50627,736.86126 217.33358,602.8582 M 135.2199,736.8619 213.04793,602.85761 M 130.9339,736.8619 208.76193,602.85761 M 126.64827,736.86126 204.47558,602.8582 M 122.3619,736.8619 200.18993,602.85761 M 118.0759,736.8619 195.90393,602.85761 M 113.79027,736.86126 191.61758,602.8582 M 109.5039,736.8619 187.33193,602.85761 M 105.2179,736.8619 183.04593,602.85761 M 100.93227,736.86126 178.75958,602.8582 M 96.645903,736.8619 174.47393,602.85761 M 92.359904,736.8619 170.18793,602.85761 M 88.074273,736.86126 165.90159,602.8582 M 83.787914,736.8619 161.61595,602.85761 M 79.501913,736.8619 157.32995,602.85761 M 75.216282,736.86126 153.0436,602.8582 M 70.929913,736.8619 148.75795,602.85761 M 66.643913,736.8619 144.47195,602.85761 M 62.358283,736.86126 140.1856,602.8582 M 58.071913,736.8619 135.89994,602.85761 M 53.785914,736.8619 131.61394,602.85761 M 49.500283,736.86126 127.32759,602.8582 M 45.521633,736.33208 123.04194,602.85761 M 45.506743,728.97808 118.75594,602.85761 M 45.506543,721.5988 114.46959,602.85821 M 45.511786,714.21014 110.18394,602.85761 M 45.510408,706.83287 105.89794,602.85761 m -60.400086,96.61724 56.113736,-96.61664 m -56.096139,89.20672 51.810494,-89.20732 m -51.825394,81.85332 47.539395,-81.85332 m -47.537258,74.47 43.250908,-74.46941 m -43.23449,67.06151 38.94884,-67.0621 m -38.96373,59.70811 34.677729,-59.70811 M 45.507522,655.18039 75.895596,602.8582 m -30.386327,44.93957 26.100687,-44.94016 m -26.102065,37.5629 21.816065,-37.5629 m -21.811591,30.17557 17.525241,-30.17497 m -17.524682,22.79435 13.239032,-22.79495 m -13.253912,15.44096 8.967912,-15.44096 m -8.948757,8.02834 4.662408,-8.02775 m -4.67653,0.67242 0.390889,-0.67301"
       inkscape:connector-curvature="0" />
  </g>
</svg>
