<?xml version="1.0" encoding="UTF-8" standalone="no"?>
<!-- Created with Inkscape (http://www.inkscape.org/) -->

<svg
   xmlns:dc="http://purl.org/dc/elements/1.1/"
   xmlns:cc="http://creativecommons.org/ns#"
   xmlns:rdf="http://www.w3.org/1999/02/22-rdf-syntax-ns#"
   xmlns:svg="http://www.w3.org/2000/svg"
   xmlns="http://www.w3.org/2000/svg"
   xmlns:sodipodi="http://sodipodi.sourceforge.net/DTD/sodipodi-0.dtd"
   xmlns:inkscape="http://www.inkscape.org/namespaces/inkscape"
   id="svg2"
   version="1.1"
   inkscape:version="0.48.4 r9939"
   width="265.74802"
   height="177.16534"
   xml:space="preserve"
   sodipodi:docname="piezoelectric_coordinate_system_diagram.svg"><sodipodi:namedview
     pagecolor="#ffffff"
     bordercolor="#666666"
     borderopacity="1"
     objecttolerance="10"
     gridtolerance="10"
     guidetolerance="10"
     inkscape:pageopacity="0"
     inkscape:pageshadow="2"
     inkscape:window-width="1871"
     inkscape:window-height="1176"
     id="namedview4"
     showgrid="false"
     units="mm"
     inkscape:zoom="3.7516743"
     inkscape:cx="155.85155"
     inkscape:cy="132.87401"
     inkscape:window-x="49"
     inkscape:window-y="24"
     inkscape:window-maximized="1"
     inkscape:current-layer="g10" /><metadata
     id="metadata8"><rdf:RDF><cc:Work
         rdf:about=""><dc:format>image/svg+xml</dc:format><dc:type
           rdf:resource="http://purl.org/dc/dcmitype/StillImage" /><dc:title /></cc:Work></rdf:RDF></metadata><defs
     id="defs6"><marker
       style="overflow:visible"
       id="Arrow1Mend"
       refX="0"
       refY="0"
       orient="auto"
       inkscape:stockid="Arrow1Mend"><path
         transform="matrix(-0.4,0,0,-0.4,-4,0)"
         style="fill-rule:evenodd;stroke:#000000;stroke-width:1pt"
         d="M 0,0 5,-5 -12.5,0 5,5 0,0 z"
         id="path3855"
         inkscape:connector-curvature="0" /></marker><marker
       style="overflow:visible"
       id="Arrow1Mstart"
       refX="0"
       refY="0"
       orient="auto"
       inkscape:stockid="Arrow1Mstart"><path
         transform="matrix(0.4,0,0,0.4,4,0)"
         style="fill-rule:evenodd;stroke:#000000;stroke-width:1pt"
         d="M 0,0 5,-5 -12.5,0 5,5 0,0 z"
         id="path3852"
         inkscape:connector-curvature="0" /></marker><marker
       style="overflow:visible"
       id="Arrow1Lstart"
       refX="0"
       refY="0"
       orient="auto"
       inkscape:stockid="Arrow1Lstart"><path
         transform="matrix(0.8,0,0,0.8,10,0)"
         style="fill-rule:evenodd;stroke:#000000;stroke-width:1pt"
         d="M 0,0 5,-5 -12.5,0 5,5 0,0 z"
         id="path3846"
         inkscape:connector-curvature="0" /></marker><marker
       style="overflow:visible"
       id="Arrow1MendV"
       refX="0"
       refY="0"
       orient="auto"
       inkscape:stockid="Arrow1MendV"><path
         transform="matrix(-0.4,0,0,-0.4,-4,0)"
         style="fill:#746c66;fill-rule:evenodd;stroke:#746c66;stroke-width:1pt"
         d="M 0,0 5,-5 -12.5,0 5,5 0,0 z"
         id="path5418"
         inkscape:connector-curvature="0" /></marker><marker
       style="overflow:visible"
       id="Arrow1MendX"
       refX="0"
       refY="0"
       orient="auto"
       inkscape:stockid="Arrow1MendX"><path
         transform="matrix(-0.4,0,0,-0.4,-4,0)"
         style="fill:#746c66;fill-rule:evenodd;stroke:#746c66;stroke-width:1pt"
         d="M 0,0 5,-5 -12.5,0 5,5 0,0 z"
         id="path5421"
         inkscape:connector-curvature="0" /></marker><marker
       style="overflow:visible"
       id="Arrow1Mendu"
       refX="0"
       refY="0"
       orient="auto"
       inkscape:stockid="Arrow1Mendu"><path
         transform="matrix(-0.4,0,0,-0.4,-4,0)"
         style="fill:#746c66;fill-rule:evenodd;stroke:#746c66;stroke-width:1pt"
         d="M 0,0 5,-5 -12.5,0 5,5 0,0 z"
         id="path4591"
         inkscape:connector-curvature="0" /></marker><marker
       style="overflow:visible"
       id="Arrow1Mendu-1"
       refX="0"
       refY="0"
       orient="auto"
       inkscape:stockid="Arrow1Mendu"><path
         transform="matrix(-0.4,0,0,-0.4,-4,0)"
         style="fill:#746c66;fill-rule:evenodd;stroke:#746c66;stroke-width:1pt"
         d="M 0,0 5,-5 -12.5,0 5,5 0,0 z"
         id="path4591-9"
         inkscape:connector-curvature="0" /></marker><marker
       style="overflow:visible"
       id="Arrow1MendXT"
       refX="0"
       refY="0"
       orient="auto"
       inkscape:stockid="Arrow1MendXT"><path
         transform="matrix(-0.4,0,0,-0.4,-4,0)"
         style="fill:#746c66;fill-rule:evenodd;stroke:#746c66;stroke-width:1pt"
         d="M 0,0 5,-5 -12.5,0 5,5 0,0 z"
         id="path4921"
         inkscape:connector-curvature="0" /></marker></defs><g
     transform="matrix(1.25,0,0,-1.25,0,177.16539)"
     inkscape:label="PZT Disk (Barium Titanate)"
     inkscape:groupmode="layer"
     id="g10"><path
       inkscape:connector-curvature="0"
       style="fill:none;stroke:#000000;stroke-width:1.60000002;stroke-linecap:butt;stroke-linejoin:round;stroke-miterlimit:10;stroke-opacity:1;stroke-dasharray:none"
       d="m 36.163082,58.060809 0.171539,1.78947 0.307991,1.78362 0.444442,1.77387 0.580894,1.76022 0.715396,1.74463 0.84795,1.72319 0.978553,1.70175 1.109156,1.67446 1.235862,1.64326 1.358668,1.61208 1.483424,1.57504 1.602332,1.53606 1.717341,1.49317 1.830401,1.44639 1.939562,1.3996 2.044825,1.34892 2.146189,1.29629 2.243654,1.23781 2.337221,1.18128 2.422991,1.11891 2.50876,1.05652 2.586733,0.9922 2.658857,0.92397 2.729032,0.85575 2.789461,0.78557 2.849889,0.71345 2.898622,0.64132 2.947355,0.56335 2.986341,0.49123 3.021428,0.4113 3.050668,0.33528 3.072111,0.25731 3.08965,0.17739 3.10135,0.0994 3.1033,0.0195 3.1033,-0.0585 3.0955,-0.1384 3.08186,-0.21833 3.06236,-0.29629 3.03703,-0.37427 3.00388,-0.45029 2.9688,-0.52826 2.92396,-0.60234 2.87523,-0.67641 2.8187,-0.75048 2.76022,-0.82066 2.6959,-0.88889 2.62377,-0.95906 2.54774,-1.02533 2.46588,-1.08772 2.38011,-1.15009 2.29238,-1.21052 2.19492,-1.26705 2.09551,-1.32163 1.99219,-1.37621 1.88694,-1.423 1.77387,-1.47173 1.66081,-1.51461 1.5419,-1.55555 1.42105,-1.59258 1.30019,-1.62768 1.17153,-1.66081 1.04288,-1.6881 0.91423,-1.71149 0.78167,-1.73489 0.64717,-1.75437 0.51267,-1.76608 0.37816,-1.77972 0.23977,-1.78751 0.10331,-1.79142"
       id="path6267" /><path
       inkscape:connector-curvature="0"
       id="path5406"
       d="m 106.2992,52.791247 0,58.808693"
       style="fill:none;stroke:#746c66;stroke-width:1.60000002;stroke-linecap:butt;stroke-linejoin:round;stroke-miterlimit:10;stroke-opacity:1;stroke-dasharray:1.6, 1.6;stroke-dashoffset:0;marker-start:none;marker-mid:none;marker-end:url(#Arrow1MendX)" /><path
       inkscape:connector-curvature="0"
       id="path18"
       d="m 106.2992,52.791247 53.82431,23.691902"
       style="fill:none;stroke:#746c66;stroke-width:1.60000002;stroke-linecap:butt;stroke-linejoin:round;stroke-miterlimit:10;stroke-opacity:1;stroke-dasharray:1.6, 1.6;stroke-dashoffset:0;marker-start:none;marker-mid:none;marker-end:url(#Arrow1MendV)" /><g
       style="stroke:#d1d3d4;stroke-opacity:1"
       inkscape:label="Lines of Longitude"
       id="g6170"
       transform="matrix(0.76171941,0,0,-0.76171941,106.32807,63.603829)"><path
         sodipodi:rx="33.342979"
         sodipodi:ry="77"
         style="fill:none;stroke:#d1d3d4;stroke-width:1;stroke-opacity:1"
         sodipodi:type="arc"
         sodipodi:open="true"
         sodipodi:start="2.5326118"
         sodipodi:end="4.712389"
         transform="matrix(0.96076892,0.2773501,-0.2773501,0.96076892,0,0)"
         sodipodi:cy="0"
         sodipodi:cx="0"
         id="path6172"
         d="M -27.34896,44.04645 C -37.882822,9.1653495 -34.177659,-38.831637 -19.073245,-63.15782 -13.478286,-72.168696 -6.8211951,-77 6.5403288e-7,-77" /><path
         sodipodi:rx="66.684959"
         sodipodi:ry="77"
         style="fill:none;stroke:#d1d3d4;stroke-width:1;stroke-opacity:1"
         sodipodi:type="arc"
         sodipodi:open="true"
         sodipodi:start="1.5707963"
         sodipodi:end="4.712389"
         transform="matrix(0,1,-1,0,0,0)"
         sodipodi:cy="0"
         sodipodi:cx="0"
         id="path6174"
         d="M 1.7868166e-6,77 C -36.829084,77.000001 -66.684958,42.525928 -66.684959,2.063207e-6 -66.68496,-42.525924 -36.829088,-76.999999 -1.7868166e-6,-77 c 1.0316209e-6,0 2.06324183e-6,0 3.0948628e-6,0" /><path
         sodipodi:rx="33.342979"
         sodipodi:ry="77"
         style="fill:none;stroke:#d1d3d4;stroke-width:1;stroke-opacity:1"
         sodipodi:type="arc"
         sodipodi:open="true"
         sodipodi:start="4.712389"
         sodipodi:end="6.9028285"
         transform="matrix(0.96076892,-0.2773501,0.2773501,0.96076892,0,0)"
         sodipodi:cy="0"
         sodipodi:cx="0"
         id="path6176"
         d="M 6.5403288e-7,-77 C 18.41482,-76.999999 33.34298,-42.525924 33.342979,1.5103789e-6 33.342979,16.032629 31.175887,31.665411 27.144043,44.717344" /></g><g
       style="stroke:#d1d3d4;stroke-opacity:1"
       inkscape:label="Lines of Latitude"
       id="g6178"
       transform="matrix(0.76171941,0,0,-0.76171941,106.32807,63.603829)"><path
         sodipodi:rx="75.06945"
         sodipodi:ry="37.535725"
         style="fill:none;stroke:#d1d3d4;stroke-width:1;stroke-opacity:1"
         sodipodi:type="arc"
         sodipodi:open="true"
         sodipodi:start="6.1510245"
         sodipodi:end="9.5569388"
         sodipodi:cy="-14.838576"
         sodipodi:cx="0"
         id="path6184"
         d="M 74.414805,-19.784899 C 79.878217,0.76472859 50.990545,19.638038 9.8923828,22.369817 -31.205779,25.101596 -68.951392,10.657375 -74.414805,-9.8922532 c -0.872861,-3.2831078 -0.872861,-6.6095398 10e-7,-9.8926478" /><path
         sodipodi:rx="60.201023"
         sodipodi:ry="30.101513"
         style="fill:none;stroke:#d1d3d4;stroke-width:1;stroke-opacity:1"
         sodipodi:type="arc"
         sodipodi:open="true"
         sodipodi:start="5.8047154"
         sodipodi:end="9.9032479"
         sodipodi:cy="-41.576767"
         sodipodi:cx="0"
         id="path6186"
         d="m 53.440475,-55.436149 c 15.308142,14.75767 3.791727,32.926183 -25.722633,40.580509 -29.5143591,7.654325 -65.850176,1.895926 -81.158317,-12.861745 -9.014064,-8.689924 -9.014064,-19.028841 10e-7,-27.718765" /><path
         sodipodi:rx="33.409046"
         sodipodi:ry="16.705524"
         style="fill:none;stroke:#d1d3d4;stroke-width:1;stroke-opacity:1"
         sodipodi:type="arc"
         sodipodi:cy="-60.08017"
         sodipodi:cx="0"
         id="path6188"
         d="m 33.409046,-60.08017 c 0,9.226207 -14.957739,16.705525 -33.409046,16.705525 -18.451307,0 -33.409046,-7.479318 -33.409046,-16.705525 0,-9.226206 14.957739,-16.705524 33.409046,-16.705524 18.451307,0 33.409046,7.479318 33.409046,16.705524 z" /></g><path
       sodipodi:rx="77"
       sodipodi:ry="77"
       style="fill:none;stroke:#d1d3d4;stroke-width:1;stroke-opacity:1"
       sodipodi:type="arc"
       sodipodi:cy="0"
       sodipodi:cx="0"
       id="path6190"
       d="M -76.999135,-0.36507461 A 77,77 0 0 1 76.999915,0.11418271"
       transform="matrix(0.76171941,0,0,-0.76171941,106.32807,63.603829)"
       sodipodi:start="3.1463339"
       sodipodi:end="6.2846682"
       sodipodi:open="true" /><path
       inkscape:connector-curvature="0"
       id="path6258"
       d="m 176.47432,48.865924 0,7.849865"
       style="fill:none;stroke:#000000;stroke-width:1.60000002;stroke-linecap:butt;stroke-linejoin:round;stroke-miterlimit:10;stroke-opacity:1;stroke-dasharray:none" /><path
       inkscape:connector-curvature="0"
       id="path6256"
       d="m 36.124094,56.715789 0,-7.849865"
       style="fill:none;stroke:#000000;stroke-width:1.60000002;stroke-linecap:butt;stroke-linejoin:round;stroke-miterlimit:10;stroke-opacity:1;stroke-dasharray:none" /><path
       inkscape:connector-curvature="0"
       id="path6254"
       d="m 155.92081,20.220833 -2.24366,-1.239761 -2.33722,-1.181281 -2.42299,-1.118903 -2.50876,-1.056525 -2.58673,-0.992198 -2.65886,-0.923973 -2.72903,-0.855746 -2.78946,-0.785572 -2.84989,-0.713447 -2.89862,-0.639373 -2.94736,-0.565299 -2.98634,-0.489277 -3.02143,-0.413253 -3.05066,-0.335281 -3.07211,-0.257309 -3.08966,-0.177387 -3.10135,-0.09941 -3.1033,-0.01949 -3.1033,0.05848 -3.0955,0.14035 -3.081857,0.216374 -3.062364,0.296295 -3.037023,0.374267 -3.003884,0.45029 -2.968798,0.528263 -2.923963,0.602336 -2.87523,0.67641 -2.8187,0.750484 -2.760221,0.820659 -2.695894,0.890834 -2.62377,0.957111 -2.547746,1.025336 -2.465876,1.087714 -2.380106,1.150093 -2.290438,1.21052 -2.19687,1.267051 -2.095507,1.323581 -1.992194,1.374262 -1.886931,1.422995 -1.77387,1.471729 -1.660812,1.514612 -1.541903,1.555549 -1.421046,1.592585 -1.298239,1.627673 -1.173484,1.660811 -1.04288,1.688101 -0.914226,1.713442 -0.781673,1.734885 -0.64717,1.752429 -0.512669,1.768023 -0.378165,1.777769 -0.239765,1.787516 -0.103314,1.791415 -0.0039,0.448341"
       style="fill:none;stroke:#000000;stroke-width:1.60000002;stroke-linecap:butt;stroke-linejoin:round;stroke-miterlimit:10;stroke-opacity:1;stroke-dasharray:none" /><path
       inkscape:connector-curvature="0"
       id="path6252"
       d="m 176.47432,48.865924 -0.039,-1.345023 -0.17154,-1.789465 -0.30799,-1.783618 -0.44444,-1.773871 -0.58089,-1.760226 -0.7154,-1.744631 -0.84795,-1.723189 -0.97855,-1.701746 -1.10916,-1.674456 -1.23391,-1.643268 -1.36062,-1.612078 -1.48342,-1.575041 -1.60233,-1.534106 -1.71734,-1.493171 -1.83041,-1.448336 -1.93956,-1.399604 -2.04482,-1.348921 -2.14619,-1.294341"
       style="fill:none;stroke:#000000;stroke-width:1.60000002;stroke-linecap:butt;stroke-linejoin:round;stroke-miterlimit:10;stroke-opacity:1;stroke-dasharray:none" /><path
       inkscape:connector-curvature="0"
       style="fill:none;stroke:#000000;stroke-width:1.60000002;stroke-linecap:butt;stroke-linejoin:round;stroke-miterlimit:10;stroke-opacity:1;stroke-dasharray:none"
       d="m 155.92081,28.070699 -2.24366,-1.239761 -2.33722,-1.179331 -2.42299,-1.120853 -2.50876,-1.056525 -2.58673,-0.992198 -2.65886,-0.923973 -2.72903,-0.855746 -2.78946,-0.785572 -2.84989,-0.713446 -2.89862,-0.639374 -2.94736,-0.565299 -2.98634,-0.489277 -3.02143,-0.413253 -3.05066,-0.335281 -3.07211,-0.257309 -3.08966,-0.177387 -3.10135,-0.09942 -3.1033,-0.01949 -3.1033,0.06043 -3.0955,0.138401 -3.081857,0.216373 -3.062364,0.296295 -3.037023,0.374267 -3.003884,0.45029 -2.968798,0.528263 -2.923963,0.602336 -2.87523,0.67641 -2.8187,0.750484 -2.760221,0.820659 -2.695894,0.890834 -2.62377,0.957111 -2.547746,1.025336 -2.465876,1.087715 -2.380106,1.152041 -2.290438,1.208571 -2.19687,1.269 -2.095507,1.321632 -1.992194,1.374262 -1.886931,1.422996 -1.77387,1.471728 -1.660812,1.514613 -1.541903,1.555548 -1.421046,1.592585 -1.298239,1.629622 -1.173484,1.658862 -1.04288,1.688101 -0.914226,1.713443 -0.781673,1.734884 -0.64717,1.752429 -0.512669,1.768023 -0.378165,1.779719 -0.239765,1.785572 -0.103314,1.79141 0.03509,1.79336"
       id="path6269" /><path
       inkscape:connector-curvature="0"
       style="fill:none;stroke:#000000;stroke-width:1.60000002;stroke-linecap:butt;stroke-linejoin:round;stroke-miterlimit:10;stroke-opacity:1;stroke-dasharray:none"
       d="m 176.47042,57.164099 -0.0351,-1.79141 -0.17154,-1.78947 -0.30799,-1.783616 -0.44444,-1.773871 -0.58089,-1.762175 -0.7154,-1.742682 -0.84795,-1.725139 -0.97855,-1.701746 -1.10916,-1.674456 -1.23391,-1.643267 -1.36062,-1.612079 -1.48342,-1.575041 -1.60233,-1.534106 -1.71734,-1.493171 -1.83041,-1.448336 -1.93956,-1.399604 -2.04482,-1.348921 -2.14619,-1.294341"
       id="path38" /><path
       sodipodi:type="arc"
       style="fill:none;stroke:#d1d3d4;stroke-width:0.54722989;stroke-miterlimit:4;stroke-opacity:1;stroke-dasharray:none;stroke-dashoffset:0"
       id="path3014"
       sodipodi:cx="96.517601"
       sodipodi:cy="74.011253"
       sodipodi:rx="65.643509"
       sodipodi:ry="13.128702"
       d="m 162.16111,74.011253 a 65.643509,13.128702 0 1 1 -131.287018,0"
       transform="matrix(0.89330506,0,0,-2.3924372,20.07043,240.64155)"
       sodipodi:start="0"
       sodipodi:end="3.1415927"
       sodipodi:open="true" /><text
       xml:space="preserve"
       style="font-size:11.19999981px;font-style:normal;font-variant:normal;font-weight:normal;font-stretch:normal;text-align:start;line-height:125%;letter-spacing:0px;word-spacing:0px;writing-mode:lr-tb;text-anchor:start;fill:#000000;fill-opacity:1;stroke:none;font-family:Times New Roman;-inkscape-font-specification:'Times New Roman,'"
       x="130.85255"
       y="-53.492798"
       id="text6221-0"
       sodipodi:linespacing="125%"
       transform="scale(1,-1)"><tspan
         sodipodi:role="line"
         x="130.85255"
         y="-53.492798"
         id="tspan6225-9">\color{405C} $\vec{1},\vec{2}$</tspan></text>
<text
       xml:space="preserve"
       style="font-size:11.19999981px;font-style:normal;font-variant:normal;font-weight:normal;font-stretch:normal;text-align:end;line-height:125%;letter-spacing:0px;word-spacing:0px;writing-mode:lr-tb;text-anchor:end;fill:#000000;fill-opacity:1;stroke:none;font-family:Times New Roman;-inkscape-font-specification:'Times New Roman,'"
       x="103.54589"
       y="-78.002151"
       id="text6221"
       sodipodi:linespacing="125%"
       transform="scale(1,-1)"><tspan
         sodipodi:role="line"
         x="103.54589"
         y="-78.002151"
         id="tspan6225">\color{405C} $\vec{3}$</tspan></text>
<path
       sodipodi:type="arc"
       style="fill:none;stroke:#746c66;stroke-width:2;stroke-miterlimit:4;stroke-opacity:1;stroke-dasharray:none;stroke-dashoffset:0;marker-end:url(#Arrow1Mendu)"
       id="path3814"
       sodipodi:cx="47.445484"
       sodipodi:cy="30.919529"
       sodipodi:rx="16.820044"
       sodipodi:ry="10.395359"
       d="M 58.387209,23.024341 A 16.820044,10.395359 0 0 1 37.926322,39.489934"
       transform="matrix(0.8,0,0,-0.8,65.690575,149.33506)"
       sodipodi:start="5.420654"
       sodipodi:end="8.4555565"
       sodipodi:open="true" /><text
       transform="scale(1,-1)"
       sodipodi:linespacing="125%"
       id="text4657"
       y="-125.66563"
       x="122.18545"
       style="font-size:11.19999981px;font-style:normal;font-variant:normal;font-weight:normal;font-stretch:normal;text-align:start;line-height:125%;letter-spacing:0px;word-spacing:0px;writing-mode:lr-tb;text-anchor:start;fill:#000000;fill-opacity:1;stroke:none;font-family:Serif;-inkscape-font-specification:Serif"
       xml:space="preserve"><tspan
         y="-125.66563"
         x="122.18545"
         id="tspan4659"
         sodipodi:role="line">\color{405C} $\vec{6}$</tspan></text>
<path
       sodipodi:open="true"
       sodipodi:end="5.9936187"
       sodipodi:start="1.1132576"
       transform="matrix(0.8,0,0,-0.8,7.8898108,169.80592)"
       d="m 213.64632,121.56857 a 7.8631558,15.32649 0 1 1 4.06231,-18.12632"
       sodipodi:ry="15.32649"
       sodipodi:rx="7.8631558"
       sodipodi:cy="107.81853"
       sodipodi:cx="210.17284"
       id="path4685"
       style="fill:none;stroke:#746c66;stroke-width:2;stroke-miterlimit:4;stroke-opacity:1;stroke-dasharray:none;stroke-dashoffset:0;marker-end:url(#Arrow1MendXT)"
       sodipodi:type="arc" /><text
       transform="scale(1,-1)"
       sodipodi:linespacing="125%"
       id="text4657-1"
       y="-101.42689"
       x="170.5905"
       style="font-size:11.19999981px;font-style:normal;font-variant:normal;font-weight:normal;font-stretch:normal;text-align:center;line-height:125%;letter-spacing:0px;word-spacing:0px;writing-mode:lr-tb;text-anchor:middle;fill:#000000;fill-opacity:1;stroke:none;font-family:Serif;-inkscape-font-specification:Serif"
       xml:space="preserve"><tspan
         y="-101.42689"
         x="170.5905"
         id="tspan4659-6"
         sodipodi:role="line">\color{405C} $\vec{4},\vec{5}$</tspan></text>
</g></svg>