<?xml version="1.0" encoding="UTF-8" standalone="no"?>
<!-- Created with Inkscape (http://www.inkscape.org/) -->

<svg
   xmlns:dc="http://purl.org/dc/elements/1.1/"
   xmlns:cc="http://creativecommons.org/ns#"
   xmlns:rdf="http://www.w3.org/1999/02/22-rdf-syntax-ns#"
   xmlns:svg="http://www.w3.org/2000/svg"
   xmlns="http://www.w3.org/2000/svg"
   xmlns:sodipodi="http://sodipodi.sourceforge.net/DTD/sodipodi-0.dtd"
   xmlns:inkscape="http://www.inkscape.org/namespaces/inkscape"
   id="svg12305"
   version="1.1"
   inkscape:version="0.91 r13725"
   xml:space="preserve"
   width="9.3888893in"
   height="5.4430952in"
   viewBox="0 0 845.00003 489.87856"
   sodipodi:docname="rlc.svg"
   inkscape:export-filename="/home/ahagen/scholarship/nucl_563/rlc.png"
   inkscape:export-xdpi="92"
   inkscape:export-ydpi="92"><metadata
     id="metadata12311"><rdf:RDF><cc:Work
         rdf:about=""><dc:format>image/svg+xml</dc:format><dc:type
           rdf:resource="http://purl.org/dc/dcmitype/StillImage" /><dc:title></dc:title></cc:Work></rdf:RDF></metadata><defs
     id="defs12309" /><sodipodi:namedview
     pagecolor="#ffffff"
     bordercolor="#666666"
     borderopacity="1"
     objecttolerance="10"
     gridtolerance="10"
     guidetolerance="10"
     inkscape:pageopacity="0"
     inkscape:pageshadow="2"
     inkscape:window-width="1920"
     inkscape:window-height="993"
     id="namedview12307"
     showgrid="false"
     units="in"
     fit-margin-top="0.25"
     fit-margin-left="0.25"
     fit-margin-right="0.25"
     fit-margin-bottom="0.25"
     inkscape:zoom="1.5798816"
     inkscape:cx="422.50002"
     inkscape:cy="244.93928"
     inkscape:window-x="1920"
     inkscape:window-y="24"
     inkscape:window-maximized="1"
     inkscape:current-layer="g12313" /><g
     id="g12313"
     inkscape:groupmode="layer"
     inkscape:label="rlc"
     transform="matrix(0.009,0,0,-0.009,-324.62999,842.22856)"><g
       id="g12331"
       transform="matrix(5.2410915,0,0,5.2410915,-91356.656,232687.79)" /><g
       id="g12337"
       transform="matrix(5.2410915,0,0,5.2410915,11788.022,232687.79)" /><g
       id="g12341"
       transform="matrix(5.2410915,0,0,5.2410915,114985.12,232687.79)" /><g
       id="g12345"
       transform="matrix(5.2410915,0,0,5.2410915,218129.79,232687.79)" /><g
       id="g12351"
       transform="matrix(5.2410915,0,0,5.2410915,321326.88,232687.79)" /><g
       id="g12355"
       transform="matrix(5.2410915,0,0,5.2410915,424471.58,232687.79)" /><g
       id="g12369"
       transform="matrix(5.2410915,0,0,5.2410915,-91356.656,-155257.81)" /><g
       id="g12375"
       transform="matrix(5.2410915,0,0,5.2410915,11788.022,-155257.81)" /><g
       id="g12379"
       transform="matrix(5.2410915,0,0,5.2410915,114985.12,-155257.81)" /><g
       id="g12383"
       transform="matrix(5.2410915,0,0,5.2410915,218129.79,-155257.81)" /><g
       id="g12389"
       transform="matrix(5.2410915,0,0,5.2410915,321326.88,-155257.81)" /><g
       id="g12393"
       transform="matrix(5.2410915,0,0,5.2410915,424471.58,-155257.81)" /><g
       id="g12403"
       transform="matrix(5.2410915,0,0,5.2410915,-142195.25,183159.47)" /><g
       id="g12409"
       transform="matrix(5.2410915,0,0,5.2410915,-142195.25,80014.785)" /><g
       id="g12413"
       transform="matrix(5.2410915,0,0,5.2410915,-142195.25,-23182.306)" /><g
       id="g12417"
       transform="matrix(5.2410915,0,0,5.2410915,-142195.25,-126326.99)" /><g
       id="g12427"
       transform="matrix(5.2410915,0,0,5.2410915,425257.74,183159.47)" /><g
       id="g12433"
       transform="matrix(5.2410915,0,0,5.2410915,425257.74,80014.785)" /><g
       id="g12437"
       transform="matrix(5.2410915,0,0,5.2410915,425257.74,-23182.306)" /><g
       id="g12441"
       transform="matrix(5.2410915,0,0,5.2410915,425257.74,-126326.99)" /><g
       id="g12445"
       transform="matrix(5.2410915,0,0,5.2410915,249104.64,-143308.13)" /><g
       id="g12465"
       transform="matrix(5.2410915,0,0,5.2410915,203716.8,-149073.33)" /><g
       id="g12579"
       transform="matrix(5.2410915,0,0,5.2410915,379083.71,-143308.13)" /><g
       id="g12593"
       transform="matrix(5.2410915,0,0,5.2410915,203716.8,-143308.13)" /><g
       id="g12617"
       transform="matrix(5.2410915,0,0,5.2410915,379083.71,-149073.33)" /><g
       id="g12641"
       transform="matrix(5.2410915,0,0,5.2410915,203716.8,-135970.59)" /><g
       id="g12663"
       transform="matrix(5.2410915,0,0,5.2410915,203716.8,-128004.14)" /><g
       id="g12701"
       transform="matrix(5.2410915,0,0,5.2410915,203716.8,-122448.58)" /><path
       d="m 41347.779,70633.23 4192.872,0 0,10482.184 -4192.872,0 0,-10482.184 z"
       style="fill:none;stroke:#000000;stroke-width:524.10913086;stroke-linecap:round;stroke-linejoin:round;stroke-miterlimit:10;stroke-dasharray:none;stroke-opacity:1"
       id="path12727"
       inkscape:connector-curvature="0" /><path
       d="m 43444.216,81115.414 0,2620.544"
       style="fill:none;stroke:#000000;stroke-width:314.46548462;stroke-linecap:round;stroke-linejoin:round;stroke-miterlimit:10;stroke-dasharray:none;stroke-opacity:1"
       id="path12729"
       inkscape:connector-curvature="0" /><path
       d="m 43444.216,70633.23 0,-2620.547"
       style="fill:none;stroke:#000000;stroke-width:314.46548462;stroke-linecap:round;stroke-linejoin:round;stroke-miterlimit:10;stroke-dasharray:none;stroke-opacity:1"
       id="path12731"
       inkscape:connector-curvature="0" /><g
       id="g12733"
       transform="matrix(0,5.2410915,-5.2410915,0,48790.128,73515.83)" /><g
       id="g12743"
       transform="matrix(0,5.2410915,-5.2410915,0,44597.256,74564.049)" /><path
       d="m 59167.491,86304.094 0,-209.645 52.411,-262.053 52.411,-209.643 52.41,-209.645 104.822,-209.643 104.821,-209.645 157.232,-157.232 104.824,-209.643 157.232,-157.232 209.643,-157.235 157.234,-157.232 209.643,-104.821 209.643,-104.821 209.645,-52.414 209.643,-104.821 209.642,0 262.056,-52.411 209.643,0 209.645,0 262.054,52.411 209.642,52.411 209.646,52.41 209.642,104.824 209.646,104.822 157.232,157.232 209.642,104.821 157.235,157.235 157.232,209.642 157.232,157.232 104.821,209.646 104.822,209.642 52.413,209.643 104.821,209.645 0,209.643 52.411,262.056 0,104.821"
       style="fill:none;stroke:#000000;stroke-width:314.46548462;stroke-linecap:round;stroke-linejoin:round;stroke-miterlimit:10;stroke-dasharray:none;stroke-opacity:1"
       id="path12749"
       inkscape:connector-curvature="0" /><path
       d="m 64408.582,86304.094 0,-209.645 52.411,-262.053 52.41,-209.643 52.411,-209.645 104.821,-209.643 104.822,-209.645 157.234,-209.643 157.232,-209.643 157.232,-157.234 157.235,-157.232 209.643,-104.822 157.232,-157.232 209.645,-104.824 209.643,-52.41 262.053,-104.822 209.645,0 262.054,-52.41 209.645,0 209.643,0 262.056,52.41 209.642,52.411 209.643,52.411 209.645,104.824 209.643,104.821 209.643,157.232 209.645,157.232 157.232,157.235 157.232,157.232 104.821,209.642 157.235,157.235 104.821,209.643 52.411,209.642 104.821,262.056 0,209.643 52.411,262.056 0,104.821"
       style="fill:none;stroke:#000000;stroke-width:314.46548462;stroke-linecap:round;stroke-linejoin:round;stroke-miterlimit:10;stroke-dasharray:none;stroke-opacity:1"
       id="path12751"
       inkscape:connector-curvature="0" /><path
       d="m 69649.673,86304.094 0,-209.645 52.41,-262.053 52.411,-209.643 52.411,-209.645 104.824,-209.643 104.821,-209.645 157.232,-209.643 157.232,-209.643 157.235,-157.234 157.232,-157.232 209.642,-104.822 157.235,-157.232 209.643,-104.824 209.642,-52.41 262.056,-104.822 209.643,0 262.056,-52.41 209.643,0 209.642,0 262.056,52.41 209.643,52.411 209.645,52.411 209.643,104.824 209.643,104.821 209.645,157.232 209.643,157.232 157.232,157.235 157.234,157.232 104.822,209.642 157.232,157.235 104.821,209.643 52.411,209.642 104.824,262.056 0,209.643 52.41,262.056 0,104.821"
       style="fill:none;stroke:#000000;stroke-width:314.46548462;stroke-linecap:round;stroke-linejoin:round;stroke-miterlimit:10;stroke-dasharray:none;stroke-opacity:1"
       id="path12753"
       inkscape:connector-curvature="0" /><path
       d="m 74890.763,86304.094 0,-209.645 52.414,-209.643 52.41,-209.642 52.411,-209.646 104.821,-209.642 104.822,-209.643 104.821,-157.235 157.235,-209.642 157.232,-157.232 157.232,-104.824 157.232,-157.232 209.645,-104.822 209.643,-104.821 157.232,-52.411 209.645,-104.824 262.053,0 209.646,-52.41 209.642,0 209.643,0 209.645,52.41 209.643,52.414 209.643,52.41 209.645,104.822 209.643,104.821 157.232,104.821 209.645,157.235 157.232,157.232 104.821,157.232 157.235,157.232 104.821,209.645 104.822,209.643 52.41,157.232 104.822,209.645 0,262.054 52.41,209.645 0,104.821"
       style="fill:none;stroke:#000000;stroke-width:314.46548462;stroke-linecap:round;stroke-linejoin:round;stroke-miterlimit:10;stroke-dasharray:none;stroke-opacity:1"
       id="path12755"
       inkscape:connector-curvature="0" /><path
       d="m 80131.857,86356.505 5241.09,0"
       style="fill:none;stroke:#000000;stroke-width:314.46548462;stroke-linecap:round;stroke-linejoin:round;stroke-miterlimit:10;stroke-dasharray:none;stroke-opacity:1"
       id="path12757"
       inkscape:connector-curvature="0" /><path
       d="m 59167.491,86356.505 -5241.093,0"
       style="fill:none;stroke:#000000;stroke-width:314.46548462;stroke-linecap:round;stroke-linejoin:round;stroke-miterlimit:10;stroke-dasharray:none;stroke-opacity:1"
       id="path12759"
       inkscape:connector-curvature="0" /><g
       id="g12761"
       transform="matrix(5.2410915,0,0,5.2410915,67448.414,87824.009)" /><g
       id="g12769"
       transform="matrix(5.2410915,0,0,5.2410915,60058.475,79962.374)" /><path
       d="m 104764.98,90549.377 0,-8385.747"
       style="fill:none;stroke:#000000;stroke-width:1048.21826172;stroke-linecap:round;stroke-linejoin:round;stroke-miterlimit:10;stroke-dasharray:none;stroke-opacity:1"
       id="path12791"
       inkscape:connector-curvature="0" /><path
       d="m 107909.64,90549.377 0,-8385.747"
       style="fill:none;stroke:#000000;stroke-width:1048.21826172;stroke-linecap:round;stroke-linejoin:round;stroke-miterlimit:10;stroke-dasharray:none;stroke-opacity:1"
       id="path12793"
       inkscape:connector-curvature="0" /><path
       d="m 108433.75,86356.505 5765.2,0"
       style="fill:none;stroke:#000000;stroke-width:314.46548462;stroke-linecap:round;stroke-linejoin:round;stroke-miterlimit:10;stroke-dasharray:none;stroke-opacity:1"
       id="path12795"
       inkscape:connector-curvature="0" /><path
       d="m 104240.88,86356.505 -5765.205,0"
       style="fill:none;stroke:#000000;stroke-width:314.46548462;stroke-linecap:round;stroke-linejoin:round;stroke-miterlimit:10;stroke-dasharray:none;stroke-opacity:1"
       id="path12797"
       inkscape:connector-curvature="0" /><g
       id="g12799"
       transform="matrix(0,5.2410915,-5.2410915,0,113045.91,80224.428)" /><g
       id="g12807"
       transform="matrix(0,5.2410915,-5.2410915,0,102563.73,82425.686)" /><path
       d="m 124681.13,47048.318 0,-2620.547 2620.55,0 -2620.55,-2620.544 -2620.54,2620.544 2620.54,0"
       style="fill:none;stroke:#000000;stroke-width:314.46548462;stroke-linecap:round;stroke-linejoin:round;stroke-miterlimit:10;stroke-dasharray:none;stroke-opacity:1"
       id="path12811"
       inkscape:connector-curvature="0" /><g
       id="g12813"
       transform="matrix(5.2410915,0,0,5.2410915,120645.49,38033.641)" /><path
       d="m 43444.216,83735.958 0,2620.547"
       style="fill:none;stroke:#000000;stroke-width:314.46548462;stroke-linecap:round;stroke-linejoin:round;stroke-miterlimit:10;stroke-dasharray:none;stroke-opacity:1"
       id="path12821"
       inkscape:connector-curvature="0" /><path
       d="m 43444.216,86356.505 10482.182,0"
       style="fill:none;stroke:#000000;stroke-width:314.46548462;stroke-linecap:round;stroke-linejoin:round;stroke-miterlimit:10;stroke-dasharray:none;stroke-opacity:1"
       id="path12823"
       inkscape:connector-curvature="0" /><path
       d="m 85372.947,86356.505 13102.728,0"
       style="fill:none;stroke:#000000;stroke-width:314.46548462;stroke-linecap:round;stroke-linejoin:round;stroke-miterlimit:10;stroke-dasharray:none;stroke-opacity:1"
       id="path12825"
       inkscape:connector-curvature="0" /><path
       d="m 114198.95,86356.505 10482.18,0"
       style="fill:none;stroke:#000000;stroke-width:314.46548462;stroke-linecap:round;stroke-linejoin:round;stroke-miterlimit:10;stroke-dasharray:none;stroke-opacity:1"
       id="path12827"
       inkscape:connector-curvature="0" /><path
       d="m 124681.13,86356.505 0,-39308.187"
       style="fill:none;stroke:#000000;stroke-width:314.46548462;stroke-linecap:round;stroke-linejoin:round;stroke-miterlimit:10;stroke-dasharray:none;stroke-opacity:1"
       id="path12829"
       inkscape:connector-curvature="0" /><path
       d="m 38727.232,57163.625 9433.966,0 0,-524.11 -9433.966,0 0,524.11 z"
       style="fill:#000000;fill-opacity:1;fill-rule:nonzero;stroke:#000000;stroke-width:314.46548462;stroke-linecap:round;stroke-linejoin:round;stroke-miterlimit:10;stroke-dasharray:none;stroke-opacity:1"
       id="path12831"
       inkscape:connector-curvature="0" /><path
       d="m 38727.232,60151.046 9433.966,0 0,-524.109 -9433.966,0 0,524.109 z"
       style="fill:#000000;fill-opacity:1;fill-rule:nonzero;stroke:#000000;stroke-width:314.46548462;stroke-linecap:round;stroke-linejoin:round;stroke-miterlimit:10;stroke-dasharray:none;stroke-opacity:1"
       id="path12833"
       inkscape:connector-curvature="0" /><path
       d="m 40194.739,55958.174 6289.309,0 0,-1048.219 -6289.309,0 0,1048.219 z"
       style="fill:#000000;fill-opacity:1;fill-rule:nonzero;stroke:#000000;stroke-width:314.46548462;stroke-linecap:round;stroke-linejoin:round;stroke-miterlimit:10;stroke-dasharray:none;stroke-opacity:1"
       id="path12835"
       inkscape:connector-curvature="0" /><path
       d="m 40194.739,58945.595 6289.309,0 0,-1048.218 -6289.309,0 0,1048.218 z"
       style="fill:#000000;fill-opacity:1;fill-rule:nonzero;stroke:#000000;stroke-width:314.46548462;stroke-linecap:round;stroke-linejoin:round;stroke-miterlimit:10;stroke-dasharray:none;stroke-opacity:1"
       id="path12837"
       inkscape:connector-curvature="0" /><path
       d="m 44492.435,62509.539 2096.435,0"
       style="fill:none;stroke:#000000;stroke-width:524.10913086;stroke-linecap:round;stroke-linejoin:round;stroke-miterlimit:10;stroke-dasharray:none;stroke-opacity:1"
       id="path12839"
       inkscape:connector-curvature="0" /><path
       d="m 45540.651,63557.755 0,-2096.434"
       style="fill:none;stroke:#000000;stroke-width:524.10913086;stroke-linecap:round;stroke-linejoin:round;stroke-miterlimit:10;stroke-dasharray:none;stroke-opacity:1"
       id="path12841"
       inkscape:connector-curvature="0" /><path
       d="m 43444.216,60151.046 0,5241.093"
       style="fill:none;stroke:#000000;stroke-width:314.46548462;stroke-linecap:round;stroke-linejoin:round;stroke-miterlimit:10;stroke-dasharray:none;stroke-opacity:1"
       id="path12843"
       inkscape:connector-curvature="0" /><path
       d="m 43444.216,54909.955 0,-5241.09"
       style="fill:none;stroke:#000000;stroke-width:314.46548462;stroke-linecap:round;stroke-linejoin:round;stroke-miterlimit:10;stroke-dasharray:none;stroke-opacity:1"
       id="path12845"
       inkscape:connector-curvature="0" /><g
       id="g12847"
       transform="matrix(5.2410915,0,0,5.2410915,48580.486,58998.006)" /><g
       id="g12859"
       transform="matrix(5.2410915,0,0,5.2410915,49314.238,53756.915)" /><path
       d="m 43444.216,47048.318 0,-2620.547 2620.544,0 -2620.544,-2620.544 -2620.546,2620.544 2620.546,0"
       style="fill:none;stroke:#000000;stroke-width:314.46548462;stroke-linecap:round;stroke-linejoin:round;stroke-miterlimit:10;stroke-dasharray:none;stroke-opacity:1"
       id="path12885"
       inkscape:connector-curvature="0" /><g
       id="g12887"
       transform="matrix(5.2410915,0,0,5.2410915,39408.574,38033.641)" /><path
       d="m 43444.216,49668.865 0,-2620.547"
       style="fill:none;stroke:#000000;stroke-width:314.46548462;stroke-linecap:round;stroke-linejoin:round;stroke-miterlimit:10;stroke-dasharray:none;stroke-opacity:1"
       id="path12895"
       inkscape:connector-curvature="0" /><path
       d="m 43444.216,65392.139 0,2620.544"
       style="fill:none;stroke:#000000;stroke-width:314.46548462;stroke-linecap:round;stroke-linejoin:round;stroke-miterlimit:10;stroke-dasharray:none;stroke-opacity:1"
       id="path12897"
       inkscape:connector-curvature="0" /><text
       xml:space="preserve"
       style="font-style:normal;font-variant:normal;font-weight:normal;font-stretch:normal;font-size:6791.43554688px;line-height:125%;font-family:Arial;-inkscape-font-specification:'Arial, Normal';text-align:center;letter-spacing:0px;word-spacing:0px;writing-mode:lr-tb;text-anchor:middle;fill:#000000;fill-opacity:1;stroke:none;stroke-width:1px;stroke-linecap:butt;stroke-linejoin:miter;stroke-opacity:1"
       x="48498.449"
       y="-73341.914"
       id="text13439"
       sodipodi:linespacing="125%"
       transform="scale(1,-1)"><tspan
         sodipodi:role="line"
         id="tspan13441"
         x="48498.449"
         y="-73341.914">R</tspan></text>
<text
       xml:space="preserve"
       style="font-style:normal;font-variant:normal;font-weight:normal;font-stretch:normal;font-size:6791.43554688px;line-height:125%;font-family:Arial;-inkscape-font-specification:'Arial, Normal';text-align:center;letter-spacing:0px;word-spacing:0px;writing-mode:lr-tb;text-anchor:middle;fill:#000000;fill-opacity:1;stroke:none;stroke-width:1px;stroke-linecap:butt;stroke-linejoin:miter;stroke-opacity:1"
       x="69226.531"
       y="-77747.875"
       id="text13443"
       sodipodi:linespacing="125%"
       transform="scale(1,-1)"><tspan
         sodipodi:role="line"
         id="tspan13445"
         x="69226.531"
         y="-77747.875">L</tspan></text>
<text
       xml:space="preserve"
       style="font-style:normal;font-variant:normal;font-weight:normal;font-stretch:normal;font-size:6791.43554688px;line-height:125%;font-family:Arial;-inkscape-font-specification:'Arial, Normal';text-align:center;letter-spacing:0px;word-spacing:0px;writing-mode:lr-tb;text-anchor:middle;fill:#000000;fill-opacity:1;stroke:none;stroke-width:1px;stroke-linecap:butt;stroke-linejoin:miter;stroke-opacity:1"
       x="106376.87"
       y="-74843.938"
       id="text13447"
       sodipodi:linespacing="125%"
       transform="scale(1,-1)"><tspan
         sodipodi:role="line"
         id="tspan13449"
         x="106376.87"
         y="-74843.938">C</tspan></text>
</g></svg>