<?xml version="1.0" encoding="UTF-8" standalone="no"?>
<svg
   xmlns:dc="http://purl.org/dc/elements/1.1/"
   xmlns:cc="http://creativecommons.org/ns#"
   xmlns:rdf="http://www.w3.org/1999/02/22-rdf-syntax-ns#"
   xmlns:svg="http://www.w3.org/2000/svg"
   xmlns="http://www.w3.org/2000/svg"
   xmlns:sodipodi="http://sodipodi.sourceforge.net/DTD/sodipodi-0.dtd"
   xmlns:inkscape="http://www.inkscape.org/namespaces/inkscape"
   version="1.1"
   width="3.0481999cm"
   height="1.6319693cm"
   viewBox="0 0 12000.303 6425.0166"
   id="svg2"
   inkscape:version="0.91 r13725"
   sodipodi:docname="pcb_front.svg">
  <metadata
     id="metadata262">
    <rdf:RDF>
      <cc:Work
         rdf:about="">
        <dc:format>image/svg+xml</dc:format>
        <dc:type
           rdf:resource="http://purl.org/dc/dcmitype/StillImage" />
        <dc:title>Picutre generated by pcb2svg</dc:title>
      </cc:Work>
    </rdf:RDF>
  </metadata>
  <defs
     id="defs260" />
  <sodipodi:namedview
     pagecolor="#ffffff"
     bordercolor="#666666"
     borderopacity="1"
     objecttolerance="10"
     gridtolerance="10"
     guidetolerance="10"
     inkscape:pageopacity="0"
     inkscape:pageshadow="2"
     inkscape:window-width="1920"
     inkscape:window-height="993"
     id="namedview258"
     showgrid="false"
     inkscape:zoom="4"
     inkscape:cx="35.782585"
     inkscape:cy="36.408755"
     inkscape:window-x="1920"
     inkscape:window-y="24"
     inkscape:window-maximized="1"
     inkscape:current-layer="svg2"
     fit-margin-top="0"
     fit-margin-left="0"
     fit-margin-right="0"
     fit-margin-bottom="0" />
  <title
     id="title4">Picutre generated by pcb2svg</title>
  <desc
     id="desc6">Picture generated by pcb2svg</desc>
  <path
     style="fill:#4ca06c;stroke:#4ca06c"
     inkscape:connector-curvature="0"
     id="path13"
     d="m 11970.546,29.948138 0,4999.999962 -9999.9999,0 0,-4999.999962 9999.9999,0" />
  <g
     id="g15"
     style="fill:#000000;stroke:#000000"
     transform="translate(-57529.454,-37970.052)">
    <g
       id="g17"
       style="fill-opacity:1;stroke-linecap:round;stroke-linejoin:round;stroke-opacity:1" />
    <g
       id="g19"
       style="fill-opacity:0;stroke-width:-0.0003937;stroke-linecap:round;stroke-linejoin:round;stroke-opacity:1" />
    <g
       id="g21"
       style="fill-opacity:0;stroke-width:59.05509949;stroke-linecap:round;stroke-linejoin:round;stroke-opacity:1">
      <path
         inkscape:connector-curvature="0"
         id="path23"
         d="m 59500,38000 10000,0" />
      <path
         inkscape:connector-curvature="0"
         id="path25"
         d="m 59500,43000 0,-5000" />
      <path
         inkscape:connector-curvature="0"
         id="path27"
         d="m 69500,43000 -10000,0" />
      <path
         inkscape:connector-curvature="0"
         id="path29"
         d="m 69500,38000 0,5000" />
    </g>
  </g>
  <g
     id="g32"
     style="fill:#417e5a;fill-opacity:1;stroke:#417e5a;stroke-linecap:round;stroke-linejoin:round;stroke-opacity:1"
     transform="translate(-57529.454,-37970.052)" />
  <g
     id="g34"
     style="fill:#417e5a;fill-opacity:0;stroke:#417e5a;stroke-width:-0.0003937;stroke-linecap:round;stroke-linejoin:round;stroke-opacity:1"
     transform="translate(-57529.454,-37970.052)" />
  <g
     id="g36"
     style="fill:#417e5a;fill-opacity:0;stroke:#417e5a;stroke-width:0;stroke-linecap:round;stroke-linejoin:round;stroke-opacity:1"
     transform="translate(-57529.454,-37970.052)" />
  <g
     id="g38"
     style="fill:#417e5a;fill-opacity:1;stroke:#417e5a;stroke-width:0;stroke-linecap:round;stroke-linejoin:round;stroke-opacity:1"
     transform="translate(-57529.454,-37970.052)">
    <polyline
       id="polyline40"
       points="60849,40066 60849,39909 61380,39909 61380,40066 60849,40066 "
       style="fill-rule:evenodd" />
    <polyline
       id="polyline42"
       points="60849,40322 60849,40165 61380,40165 61380,40322 60849,40322 "
       style="fill-rule:evenodd" />
    <polyline
       id="polyline44"
       points="60849,40578 60849,40420 61380,40420 61380,40578 60849,40578 "
       style="fill-rule:evenodd" />
    <polyline
       id="polyline46"
       points="60849,40834 60849,40676 61380,40676 61380,40834 60849,40834 "
       style="fill-rule:evenodd" />
    <polyline
       id="polyline48"
       points="60849,41090 60849,40932 61380,40932 61380,41090 60849,41090 "
       style="fill-rule:evenodd" />
  </g>
  <g
     id="g50"
     style="fill:#417e5a;fill-opacity:1;stroke:#417e5a;stroke-width:374.01599121;stroke-linecap:round;stroke-linejoin:round;stroke-opacity:1"
     transform="translate(-57529.454,-37970.052)" />
  <g
     id="g52"
     style="fill:#417e5a;fill-opacity:0;stroke:#417e5a;stroke-width:374.01599121;stroke-linecap:round;stroke-linejoin:round;stroke-opacity:1"
     transform="translate(-57529.454,-37970.052)">
    <path
       inkscape:connector-curvature="0"
       id="path54"
       d="m 61115,39456 0,118" />
    <path
       inkscape:connector-curvature="0"
       id="path56"
       d="m 61115,41424 0,118" />
  </g>
  <g
     id="g58"
     style="fill:#417e5a;fill-opacity:0;stroke:#417e5a;stroke-width:393.70098877;stroke-linecap:round;stroke-linejoin:round;stroke-opacity:1"
     transform="translate(-57529.454,-37970.052)">
    <path
       inkscape:connector-curvature="0"
       id="path60"
       d="m 59943,39121 217,0" />
    <path
       inkscape:connector-curvature="0"
       id="path62"
       d="m 59943,41877 217,0" />
  </g>
  <g
     id="g64"
     style="fill:#417e5a;fill-opacity:1;stroke:#417e5a;stroke-width:0;stroke-linecap:round;stroke-linejoin:round;stroke-opacity:1"
     transform="translate(-57529.454,-37970.052)">
    <circle
       id="circle66"
       r="300"
       cy="42000"
       cx="67000" />
  </g>
  <g
     id="g68"
     style="fill:#417e5a;fill-opacity:1;stroke:#417e5a;stroke-width:59.05509949;stroke-linecap:round;stroke-linejoin:round;stroke-opacity:1"
     transform="translate(-57529.454,-37970.052)" />
  <g
     id="g70"
     style="fill:#417e5a;fill-opacity:1;stroke:#417e5a;stroke-width:0;stroke-linecap:round;stroke-linejoin:round;stroke-opacity:1"
     transform="translate(-57529.454,-37970.052)">
    <circle
       id="circle72"
       r="300"
       cy="40000"
       cx="67000" />
  </g>
  <g
     id="g74"
     style="fill:#417e5a;fill-opacity:1;stroke:#417e5a;stroke-width:59.05509949;stroke-linecap:round;stroke-linejoin:round;stroke-opacity:1"
     transform="translate(-57529.454,-37970.052)" />
  <g
     id="g76"
     style="fill:#417e5a;fill-opacity:1;stroke:#417e5a;stroke-width:0;stroke-linecap:round;stroke-linejoin:round;stroke-opacity:1"
     transform="translate(-57529.454,-37970.052)">
    <polyline
       id="polyline78"
       points="62594,40773 62594,40226 64405,40226 64405,40773 62594,40773 "
       style="fill-rule:evenodd" />
    <polyline
       id="polyline80"
       points="65251,42625 65251,38374 68952,38374 68952,42625 65251,42625 "
       style="fill-rule:evenodd" />
    <polyline
       id="polyline82"
       points="62594,41773 62594,41226 64405,41226 64405,41773 62594,41773 "
       style="fill-rule:evenodd" />
    <polyline
       id="polyline84"
       points="62594,39773 62594,39226 64405,39226 64405,39773 62594,39773 "
       style="fill-rule:evenodd" />
    <circle
       id="circle86"
       r="118.11"
       cy="38925"
       cx="64850" />
  </g>
  <g
     id="g88"
     style="fill:#417e5a;fill-opacity:1;stroke:#417e5a;stroke-width:59.05509949;stroke-linecap:round;stroke-linejoin:round;stroke-opacity:1"
     transform="translate(-57529.454,-37970.052)" />
  <g
     id="g90"
     style="fill:#417e5a;fill-opacity:1;stroke:#417e5a;stroke-width:0;stroke-linecap:round;stroke-linejoin:round;stroke-opacity:1"
     transform="translate(-57529.454,-37970.052)">
    <circle
       id="circle92"
       r="118.11"
       cy="42100"
       cx="63800" />
  </g>
  <g
     id="g94"
     style="fill:#417e5a;fill-opacity:1;stroke:#417e5a;stroke-width:59.05509949;stroke-linecap:round;stroke-linejoin:round;stroke-opacity:1"
     transform="translate(-57529.454,-37970.052)" />
  <g
     id="g96"
     style="fill:#417e5a;fill-opacity:1;stroke:#417e5a;stroke-width:0;stroke-linecap:round;stroke-linejoin:round;stroke-opacity:1"
     transform="translate(-57529.454,-37970.052)">
    <circle
       id="circle98"
       r="118.11"
       cy="39725"
       cx="61925" />
  </g>
  <g
     id="g100"
     style="fill:#417e5a;fill-opacity:1;stroke:#417e5a;stroke-width:59.05509949;stroke-linecap:round;stroke-linejoin:round;stroke-opacity:1"
     transform="translate(-57529.454,-37970.052)" />
  <g
     id="g102"
     style="fill:#417e5a;fill-opacity:1;stroke:#417e5a;stroke-width:0;stroke-linecap:round;stroke-linejoin:round;stroke-opacity:1"
     transform="translate(-57529.454,-37970.052)">
    <circle
       id="circle104"
       r="118.11"
       cy="40500"
       cx="62200" />
  </g>
  <g
     id="g106"
     style="fill:#417e5a;fill-opacity:1;stroke:#417e5a;stroke-width:59.05509949;stroke-linecap:round;stroke-linejoin:round;stroke-opacity:1"
     transform="translate(-57529.454,-37970.052)" />
  <g
     id="g108"
     style="fill:#417e5a;fill-opacity:1;stroke:#417e5a;stroke-width:98.42520142;stroke-linecap:round;stroke-linejoin:round;stroke-opacity:1"
     transform="translate(-57529.454,-37970.052)" />
  <g
     id="g110"
     style="fill:#417e5a;fill-opacity:0;stroke:#417e5a;stroke-width:98.42520142;stroke-linecap:round;stroke-linejoin:round;stroke-opacity:1"
     transform="translate(-57529.454,-37970.052)">
    <path
       inkscape:connector-curvature="0"
       id="path112"
       d="m 63500,41500 1325,0" />
    <path
       inkscape:connector-curvature="0"
       id="path114"
       d="m 64850,41475 0,-2550" />
    <path
       inkscape:connector-curvature="0"
       id="path116"
       d="m 64825,41500 25,-25" />
    <path
       inkscape:connector-curvature="0"
       id="path118"
       d="m 63500,41500 0,300" />
    <path
       inkscape:connector-curvature="0"
       id="path120"
       d="m 63500,41800 300,300" />
    <path
       inkscape:connector-curvature="0"
       id="path122"
       d="m 61115,39987 547,0" />
    <path
       inkscape:connector-curvature="0"
       id="path124"
       d="m 61662,39987 263,-262" />
    <path
       inkscape:connector-curvature="0"
       id="path126"
       d="m 63500,40500 -1300,0" />
  </g>
  <g
     id="g128"
     style="fill:#417e5a;fill-opacity:1;stroke:#417e5a;stroke-width:100;stroke-linecap:round;stroke-linejoin:round;stroke-opacity:1"
     transform="translate(-57529.454,-37970.052)">
    <polyline
       id="polyline130"
       points="64997,38374 64997,38587 64923,38556 64777,38556 64641,38612 64538,38716 64481,38851 64481,38987 64455,38976 63612,38976 63550,39038 63550,39450 63557,39450 63557,39550 63550,39550 63550,39557 63450,39557 63450,39550 62406,39550 62344,39612 62344,39823 62382,39915 62452,39985 62485,39999 62416,40043 62359,40127 62352,40164 62273,40131 62127,40131 61991,40187 61888,40291 61831,40426 61831,40572 61887,40708 61991,40811 62126,40868 62272,40868 62351,40835 62357,40866 62411,40951 62483,41000 62416,41043 62359,41127 62339,41226 62339,41773 62357,41866 62411,41951 62495,42008 62594,42028 63305,42028 63431,42154 63431,42172 63487,42308 63591,42411 63726,42468 63872,42468 64008,42412 64111,42308 64168,42173 64168,42028 64405,42028 64498,42011 64583,41956 64640,41872 64655,41799 64825,41799 64939,41776 64997,41737 64997,42625 65014,42718 65015,42720 59779,42720 59779,42293 59933,42324 60171,42324 60342,42290 60487,42193 60584,42048 60618,41877 60584,41706 60487,41561 60342,41464 60171,41430 59933,41430 59779,41461 59779,39909 60594,39909 60594,40066 60604,40117 60594,40165 60594,40322 60604,40373 60594,40420 60594,40578 60602,40620 60599,40627 60599,40653 60610,40665 60611,40671 60666,40756 60667,40756 60614,40833 60612,40844 60599,40857 60599,40884 60602,40892 60594,40932 60594,41090 60611,41182 60666,41267 60702,41292 60678,41415 60678,41552 60711,41719 60806,41861 60947,41956 61115,41989 61282,41956 61424,41861 61518,41719 61552,41552 61552,41415 61527,41292 61558,41272 61615,41189 61635,41090 61635,40932 61627,40891 61630,40884 61630,40857 61619,40846 61618,40840 61563,40754 61563,40754 61615,40677 61617,40666 61630,40653 61630,40627 61627,40619 61635,40578 61635,40420 61626,40369 61635,40322 61635,40287 61662,40287 61776,40264 61873,40199 61979,40093 61997,40093 62133,40037 62236,39933 62293,39798 62293,39652 62237,39516 62133,39413 61998,39356 61852,39356 61716,39412 61613,39516 61556,39651 61556,39669 61538,39688 61531,39688 61552,39584 61552,39446 61518,39279 61450,39176 62344,39176 62344,39387 62406,39450 63450,39450 63450,39038 63387,38976 62544,38976 62452,39014 62382,39084 62344,39176 61450,39176 61424,39137 61282,39042 61115,39009 60947,39042 60806,39137 60711,39279 60678,39446 60678,39584 60702,39706 60671,39726 60614,39809 60594,39909 59779,39909 59779,39538 59933,39568 60171,39568 60342,39534 60487,39437 60584,39292 60618,39121 60584,38950 60487,38805 60342,38708 60171,38674 59933,38674 59779,38705 59779,38279 65016,38279 64997,38374 "
       style="fill-rule:evenodd" />
  </g>
  <g
     id="g132"
     style="fill:#417e5a;fill-opacity:1;stroke:#417e5a;stroke-width:100;stroke-linecap:round;stroke-linejoin:round;stroke-opacity:1"
     transform="translate(-57529.454,-37970.052)" />
  <g
     id="g134"
     style="fill:#417e5a;fill-opacity:1;stroke:#417e5a;stroke-width:0;stroke-linecap:round;stroke-linejoin:round;stroke-opacity:1"
     transform="translate(-57529.454,-37970.052)">
    <circle
       id="circle136"
       r="68.897598"
       cy="38925"
       cx="64850" />
  </g>
  <g
     id="g138"
     style="fill:#417e5a;fill-opacity:1;stroke:#417e5a;stroke-width:59.05509949;stroke-linecap:round;stroke-linejoin:round;stroke-opacity:1"
     transform="translate(-57529.454,-37970.052)" />
  <g
     id="g140"
     style="fill:#417e5a;fill-opacity:1;stroke:#417e5a;stroke-width:0;stroke-linecap:round;stroke-linejoin:round;stroke-opacity:1"
     transform="translate(-57529.454,-37970.052)">
    <circle
       id="circle142"
       r="68.897598"
       cy="42100"
       cx="63800" />
  </g>
  <g
     id="g144"
     style="fill:#417e5a;fill-opacity:1;stroke:#417e5a;stroke-width:59.05509949;stroke-linecap:round;stroke-linejoin:round;stroke-opacity:1"
     transform="translate(-57529.454,-37970.052)" />
  <g
     id="g146"
     style="fill:#417e5a;fill-opacity:1;stroke:#417e5a;stroke-width:0;stroke-linecap:round;stroke-linejoin:round;stroke-opacity:1"
     transform="translate(-57529.454,-37970.052)">
    <circle
       id="circle148"
       r="68.897598"
       cy="39725"
       cx="61925" />
  </g>
  <g
     id="g150"
     style="fill:#417e5a;fill-opacity:1;stroke:#417e5a;stroke-width:59.05509949;stroke-linecap:round;stroke-linejoin:round;stroke-opacity:1"
     transform="translate(-57529.454,-37970.052)" />
  <g
     id="g152"
     style="fill:#417e5a;fill-opacity:1;stroke:#417e5a;stroke-width:0;stroke-linecap:round;stroke-linejoin:round;stroke-opacity:1"
     transform="translate(-57529.454,-37970.052)">
    <circle
       id="circle154"
       r="68.897598"
       cy="40500"
       cx="62200" />
  </g>
  <g
     id="g156"
     style="fill:#417e5a;fill-opacity:1;stroke:#417e5a;stroke-width:59.05509949;stroke-linecap:round;stroke-linejoin:round;stroke-opacity:1"
     transform="translate(-57529.454,-37970.052)" />
  <g
     id="g158"
     style="fill:#417e5a;fill-opacity:1;stroke:#417e5a;stroke-width:216.53500366;stroke-linecap:round;stroke-linejoin:round;stroke-opacity:1"
     transform="translate(-57529.454,-37970.052)" />
  <g
     id="g160"
     style="fill:#417e5a;fill-opacity:0;stroke:#417e5a;stroke-width:216.53500366;stroke-linecap:round;stroke-linejoin:round;stroke-opacity:1"
     transform="translate(-57529.454,-37970.052)">
    <path
       inkscape:connector-curvature="0"
       id="path162"
       d="m 61115,39456 0,118" />
    <path
       inkscape:connector-curvature="0"
       id="path164"
       d="m 61115,41424 0,118" />
  </g>
  <g
     id="g166"
     style="fill:#417e5a;fill-opacity:0;stroke:#417e5a;stroke-width:196.8500061;stroke-linecap:round;stroke-linejoin:round;stroke-opacity:1"
     transform="translate(-57529.454,-37970.052)">
    <path
       inkscape:connector-curvature="0"
       id="path168"
       d="m 59924,39121 256,0" />
    <path
       inkscape:connector-curvature="0"
       id="path170"
       d="m 59924,41877 256,0" />
  </g>
  <g
     id="g172"
     style="fill:#417e5a;fill-opacity:1;stroke:#417e5a;stroke-width:0;stroke-linecap:round;stroke-linejoin:round;stroke-opacity:1"
     transform="translate(-57529.454,-37970.052)">
    <circle
       id="circle174"
       r="68.897598"
       cy="42000"
       cx="67000" />
  </g>
  <g
     id="g176"
     style="fill:#417e5a;fill-opacity:1;stroke:#417e5a;stroke-width:59.05509949;stroke-linecap:round;stroke-linejoin:round;stroke-opacity:1"
     transform="translate(-57529.454,-37970.052)" />
  <g
     id="g178"
     style="fill:#417e5a;fill-opacity:1;stroke:#417e5a;stroke-width:0;stroke-linecap:round;stroke-linejoin:round;stroke-opacity:1"
     transform="translate(-57529.454,-37970.052)">
    <circle
       id="circle180"
       r="68.897598"
       cy="40000"
       cx="67000" />
  </g>
  <g
     id="g182"
     style="fill:#417e5a;fill-opacity:1;stroke:#417e5a;stroke-width:59.05509949;stroke-linecap:round;stroke-linejoin:round;stroke-opacity:1"
     transform="translate(-57529.454,-37970.052)" />
  <g
     id="g184"
     style="fill:#417e5a;fill-opacity:1;stroke:#417e5a;stroke-width:59.05509949;stroke-linecap:round;stroke-linejoin:round;stroke-opacity:1"
     transform="translate(-57529.454,-37970.052)" />
  <g
     id="g187"
     style="fill:#b5ae30;fill-opacity:1;stroke:#b5ae30;stroke-linecap:round;stroke-linejoin:round;stroke-opacity:1"
     transform="translate(-57529.454,-37970.052)" />
  <g
     id="g189"
     style="fill:#b5ae30;fill-opacity:0;stroke:#b5ae30;stroke-width:-0.0003937;stroke-linecap:round;stroke-linejoin:round;stroke-opacity:1"
     transform="translate(-57529.454,-37970.052)" />
  <g
     id="g191"
     style="fill:#b5ae30;fill-opacity:0;stroke:#b5ae30;stroke-width:0;stroke-linecap:round;stroke-linejoin:round;stroke-opacity:1"
     transform="translate(-57529.454,-37970.052)" />
  <g
     id="g193"
     style="fill:#b5ae30;fill-opacity:1;stroke:#b5ae30;stroke-width:0;stroke-linecap:round;stroke-linejoin:round;stroke-opacity:1"
     transform="translate(-57529.454,-37970.052)">
    <polyline
       id="polyline195"
       points="60849,40066 60849,39909 61380,39909 61380,40066 60849,40066 "
       style="fill-rule:evenodd" />
    <polyline
       id="polyline197"
       points="60849,40322 60849,40165 61380,40165 61380,40322 60849,40322 "
       style="fill-rule:evenodd" />
    <polyline
       id="polyline199"
       points="60849,40578 60849,40420 61380,40420 61380,40578 60849,40578 "
       style="fill-rule:evenodd" />
    <polyline
       id="polyline201"
       points="60849,40834 60849,40676 61380,40676 61380,40834 60849,40834 "
       style="fill-rule:evenodd" />
    <polyline
       id="polyline203"
       points="60849,41090 60849,40932 61380,40932 61380,41090 60849,41090 "
       style="fill-rule:evenodd" />
    <polyline
       id="polyline205"
       points="62594,40773 62594,40226 64405,40226 64405,40773 62594,40773 "
       style="fill-rule:evenodd" />
    <polyline
       id="polyline207"
       points="65251,42625 65251,38374 68952,38374 68952,42625 65251,42625 "
       style="fill-rule:evenodd" />
    <polyline
       id="polyline209"
       points="62594,41773 62594,41226 64405,41226 64405,41773 62594,41773 "
       style="fill-rule:evenodd" />
    <polyline
       id="polyline211"
       points="62594,39773 62594,39226 64405,39226 64405,39773 62594,39773 "
       style="fill-rule:evenodd" />
  </g>
  <g
     id="g214"
     style="fill:#f0f0f0;fill-opacity:1;stroke:#f0f0f0;stroke-linecap:round;stroke-linejoin:round;stroke-opacity:1"
     transform="translate(-57529.454,-37970.052)" />
  <g
     id="g216"
     style="fill:#f0f0f0;fill-opacity:0;stroke:#f0f0f0;stroke-width:-0.0003937;stroke-linecap:round;stroke-linejoin:round;stroke-opacity:1"
     transform="translate(-57529.454,-37970.052)" />
  <path
     style="fill:#f0f0f0;fill-opacity:0;stroke:#f0f0f0;stroke-width:59.05509949;stroke-linecap:round;stroke-linejoin:round;stroke-opacity:1"
     d="m 6954.5461,4497.9481 0,-492"
     id="path230"
     inkscape:connector-curvature="0" />
  <path
     style="fill:#f0f0f0;fill-opacity:0;stroke:#f0f0f0;stroke-width:59.05509949;stroke-linecap:round;stroke-linejoin:round;stroke-opacity:1"
     d="m 6954.5461,4497.9481 590,0"
     id="path232"
     inkscape:connector-curvature="0" />
  <path
     style="fill:#f0f0f0;fill-opacity:0;stroke:#f0f0f0;stroke-width:59.05509949;stroke-linecap:round;stroke-linejoin:round;stroke-opacity:1"
     d="m 6954.5461,560.94814 590,0"
     id="path234"
     inkscape:connector-curvature="0" />
  <path
     style="fill:#f0f0f0;fill-opacity:0;stroke:#f0f0f0;stroke-width:59.05509949;stroke-linecap:round;stroke-linejoin:round;stroke-opacity:1"
     d="m 6954.5461,560.94814 0,491.99996"
     id="path236"
     inkscape:connector-curvature="0" />
  <path
     style="fill:#f0f0f0;fill-opacity:0;stroke:#f0f0f0;stroke-width:59.05509949;stroke-linecap:round;stroke-linejoin:round;stroke-opacity:1"
     d="m 4506.5461,3166.9481 0,187 -394,0"
     id="path238"
     inkscape:connector-curvature="0" />
  <path
     style="fill:#f0f0f0;fill-opacity:0;stroke:#f0f0f0;stroke-width:59.05509949;stroke-linecap:round;stroke-linejoin:round;stroke-opacity:1"
     d="m 4112.5461,2960.9481 0,-75 19,-38 37,-37 75,-19 132,0 75,19 37,37 19,38 0,75 -19,37 -37,38 -75,18 -132,0 -75,-18 -37,-38 -19,-37"
     id="path240"
     inkscape:connector-curvature="0" />
  <path
     style="fill:#f0f0f0;fill-opacity:0;stroke:#f0f0f0;stroke-width:59.05509949;stroke-linecap:round;stroke-linejoin:round;stroke-opacity:1"
     d="m 4393.5461,2641.9481 0,-187"
     id="path242"
     inkscape:connector-curvature="0" />
  <path
     style="fill:#f0f0f0;fill-opacity:0;stroke:#f0f0f0;stroke-width:59.05509949;stroke-linecap:round;stroke-linejoin:round;stroke-opacity:1"
     d="m 4506.5461,2678.9481 -394,-131 394,-131"
     id="path244"
     inkscape:connector-curvature="0" />
  <path
     style="fill:#f0f0f0;fill-opacity:0;stroke:#f0f0f0;stroke-width:59.05509949;stroke-linecap:round;stroke-linejoin:round;stroke-opacity:1"
     d="m 4506.5461,2285.9481 -394,0 0,-94 19,-56 37,-38 38,-18 75,-19 56,0 75,19 38,18 37,38 19,56 0,94"
     id="path246"
     inkscape:connector-curvature="0" />
  <path
     style="fill:#f0f0f0;fill-opacity:0;stroke:#f0f0f0;stroke-width:59.05509949;stroke-linecap:round;stroke-linejoin:round;stroke-opacity:1"
     d="m 4506.5461,1685.9481 0,225"
     id="path248"
     inkscape:connector-curvature="0" />
  <path
     style="fill:#f0f0f0;fill-opacity:0;stroke:#f0f0f0;stroke-width:59.05509949;stroke-linecap:round;stroke-linejoin:round;stroke-opacity:1"
     d="m 4506.5461,1797.9481 -394,0 56,38 38,37 19,38"
     id="path250"
     inkscape:connector-curvature="0" />
  <g
     id="g4876"
     transform="matrix(0,1,-1,0,9478.2274,-2316.9024)">
    <path
       inkscape:connector-curvature="0"
       id="path252"
       d="m 6494,4041 319,0 37,-18 19,-19 19,-38 0,-75 -19,-37 -19,-19 -37,-19 -319,0"
       style="fill:#f0f0f0;fill-opacity:0;stroke:#f0f0f0;stroke-width:59.05509949;stroke-linecap:round;stroke-linejoin:round;stroke-opacity:1" />
    <path
       inkscape:connector-curvature="0"
       id="path254"
       d="m 6888,3423 0,225"
       style="fill:#f0f0f0;fill-opacity:0;stroke:#f0f0f0;stroke-width:59.05509949;stroke-linecap:round;stroke-linejoin:round;stroke-opacity:1" />
    <path
       inkscape:connector-curvature="0"
       id="path256"
       d="m 6888,3535 -394,0 56,38 38,37 18,38"
       style="fill:#f0f0f0;fill-opacity:0;stroke:#f0f0f0;stroke-width:59.05509949;stroke-linecap:round;stroke-linejoin:round;stroke-opacity:1" />
  </g>
  <path
     id="ellipse4165"
     style="fill:#d1d3d4;fill-opacity:1;stroke:none;stroke-width:1.25;stroke-linecap:butt;stroke-linejoin:round;stroke-miterlimit:4;stroke-dasharray:none;stroke-dashoffset:0;stroke-opacity:1"
     d="m 1975.8264,4063.954 a 336.9142,255.00485 0 0 0 303.0515,143.9744 336.9142,255.00485 0 0 0 302.7727,-143.9744 l -605.8242,0 z M 2278.8779,892.88804 a 336.9142,255.00485 0 0 0 -302.122,142.82186 l 604.4297,0 A 336.9142,255.00485 0 0 0 2278.8779,892.88804 Z m 1176.5091,323.05536 0,567.7403 260.1963,0 0,-567.7403 -260.1963,0 z m 0,725.4558 0,133.8677 356.5036,0 0,-133.8677 -356.5036,0 z m 0,272.1682 0,130.0552 354.6445,0 0,-130.0552 -354.6445,0 z m 0,244.2418 0,131.2078 355.2023,0 0,-131.2078 -355.2023,0 z m 0,260.643 0,134.1332 356.5969,0 0,-134.1332 -356.5969,0 z m 0,262.061 0,134.3996 356.7825,0 0,-134.3996 -356.7825,0 z m 0,259.845 0,568.4497 260.5685,0 0,-568.4497 -260.5685,0 z"
     inkscape:connector-curvature="0" />
  <path
     inkscape:connector-curvature="0"
     id="path4175"
     d="m 1080.9261,4197.7681 243.0132,-133.8041 2131.4301,0 0,-3028.2564 -2160.5292,0 -157.7616,-150.45256 -76.4783,126.32776 183.2467,174.7576 0,134.9729 -211.0513,0 0,2519.448 187.1744,0 0,163.2028 -216.0117,118.9368 z"
     style="fill:#a7a9ac;fill-rule:evenodd;stroke:none;stroke-width:1px;stroke-linecap:butt;stroke-linejoin:miter;stroke-opacity:1" />
  <rect
     style="fill:#746c66;fill-opacity:1;stroke:none;stroke-width:1.25;stroke-linecap:butt;stroke-linejoin:round;stroke-miterlimit:4;stroke-dasharray:none;stroke-dashoffset:0;stroke-opacity:1"
     id="rect4169"
     width="673.82837"
     height="255.00485"
     x="1551.5361"
     y="3432.7529" />
  <path
     style="fill:#746c66;fill-rule:evenodd;stroke:none;stroke-width:1px;stroke-linecap:butt;stroke-linejoin:miter;stroke-opacity:1"
     d="m 3353.7599,2020.0266 0,-392.7077 -181.8265,0 0,-377.4073 -262.0444,0 0,770.115 z"
     id="path4171"
     inkscape:connector-curvature="0" />
  <path
     inkscape:connector-curvature="0"
     id="path4173"
     d="m 3353.7599,3101.247 0,392.7076 -181.8265,0 0,377.4074 -262.0444,0 0,-770.115 z"
     style="fill:#746c66;fill-rule:evenodd;stroke:none;stroke-width:1px;stroke-linecap:butt;stroke-linejoin:miter;stroke-opacity:1" />
  <rect
     y="1515.1163"
     x="1551.5361"
     height="255.00485"
     width="673.82837"
     id="rect4177"
     style="fill:#746c66;fill-opacity:1;stroke:none;stroke-width:1.25;stroke-linecap:butt;stroke-linejoin:round;stroke-miterlimit:4;stroke-dasharray:none;stroke-dashoffset:0;stroke-opacity:1" />
  <g
     id="g4891"
     transform="translate(638.54611,-1212.0519)">
    <path
       sodipodi:nodetypes="ccccccccccccccc"
       id="path4870"
       style="fill:#d1d3d4;fill-opacity:1;stroke:none;stroke-width:1.25;stroke-linecap:butt;stroke-linejoin:round;stroke-miterlimit:4;stroke-dasharray:none;stroke-dashoffset:0;stroke-opacity:1"
       d="m 5233.5693,2493.3813 0,501.7083 1368.0967,0 0,-501.7083 z m 0,992.0013 0,506.1547 1370.2486,0 0,-506.1547 z m 0,999.2462 0,517.4399 1375.6285,0 0,-517.4399 z"
       inkscape:connector-curvature="0" />
    <g
       transform="matrix(1.1350147,0,0,1.3545252,-205.10526,-1351.5161)"
       id="g4872">
      <rect
         style="fill:#000000;fill-opacity:1;stroke:none;stroke-width:1.25;stroke-linecap:butt;stroke-linejoin:round;stroke-miterlimit:4;stroke-dasharray:none;stroke-dashoffset:0;stroke-opacity:1"
         id="rect4865"
         width="2809.3755"
         height="2879.6101"
         x="5847.3325"
         y="2324.7917" />
      <path
         style="fill:#a7a9ac;fill-opacity:1;stroke:none;stroke-width:1.25;stroke-linecap:butt;stroke-linejoin:round;stroke-miterlimit:4;stroke-dasharray:none;stroke-dashoffset:0;stroke-opacity:1"
         d="m 8656.7079,2324.7767 596.9922,0 263.3791,369.6835 0,2101.3587 -263.3791,408.5978 -596.9922,0 z"
         id="rect4867"
         inkscape:connector-curvature="0"
         sodipodi:nodetypes="ccccccc" />
    </g>
  </g>
  <path
     style="fill:none;fill-rule:evenodd;stroke:#000000;stroke-width:111.1100769px;stroke-linecap:butt;stroke-linejoin:miter;stroke-opacity:1"
     d="m 1996.1536,5642.821 0,782.1956"
     id="path4320"
     inkscape:connector-curvature="0" />
  <path
     style="fill:none;fill-rule:evenodd;stroke:#000000;stroke-width:111.1100769px;stroke-linecap:butt;stroke-linejoin:miter;stroke-opacity:1"
     d="m 1954.44,6033.9188 3128.7196,0 m 3953.4935,0 2937.3389,0"
     id="path4322"
     inkscape:connector-curvature="0"
     sodipodi:nodetypes="cccc" />
  <text
     xml:space="preserve"
     style="font-style:normal;font-variant:normal;font-weight:normal;font-stretch:normal;font-size:833.32562256px;line-height:125%;font-family:Arial;-inkscape-font-specification:'Arial, Normal';text-align:center;letter-spacing:0px;word-spacing:0px;writing-mode:lr-tb;text-anchor:middle;fill:#000000;fill-opacity:1;stroke:none;stroke-width:1px;stroke-linecap:butt;stroke-linejoin:miter;stroke-opacity:1"
     x="6993.3745"
     y="6328.3091"
     id="text4324"
     sodipodi:linespacing="125%"><tspan
       sodipodi:role="line"
       id="tspan4326"
       x="6993.3745"
       y="6328.3091">25.6 mm</tspan></text>
  <path
     inkscape:connector-curvature="0"
     id="path4328"
     d="m 11944.939,5642.821 0,782.1956"
     style="fill:none;fill-rule:evenodd;stroke:#000000;stroke-width:111.1100769px;stroke-linecap:butt;stroke-linejoin:miter;stroke-opacity:1" />
  <text
     sodipodi:linespacing="125%"
     id="text4336"
     y="685.30615"
     x="-2554.7346"
     style="font-style:normal;font-variant:normal;font-weight:normal;font-stretch:normal;font-size:833.32562256px;line-height:125%;font-family:Arial;-inkscape-font-specification:'Arial, Normal';text-align:center;letter-spacing:0px;word-spacing:0px;writing-mode:lr-tb;text-anchor:middle;fill:#000000;fill-opacity:1;stroke:none;stroke-width:1px;stroke-linecap:butt;stroke-linejoin:miter;stroke-opacity:1"
     xml:space="preserve"
     transform="matrix(0,-1,1,0,0,0)"><tspan
       y="685.30615"
       x="-2554.7346"
       id="tspan4338"
       sodipodi:role="line">12.8 mm</tspan></text>
  <path
     id="path4340"
     style="fill:none;fill-rule:evenodd;stroke:#000000;stroke-width:111.1100769px;stroke-linecap:butt;stroke-linejoin:miter;stroke-opacity:1"
     d="m -0.18183222,55.555038 782.19557222,0 M 390.91597,5059.4136 l 0,-775.868 m 0,-3514.52856 0,-742.515002 M -0.18183222,5017.6996 l 782.19557222,0"
     inkscape:connector-curvature="0"
     sodipodi:nodetypes="cccccccc" />
</svg>
