<?xml version="1.0" encoding="UTF-8" standalone="no"?>
<!-- Created with Inkscape (http://www.inkscape.org/) -->

<svg
   xmlns:dc="http://purl.org/dc/elements/1.1/"
   xmlns:cc="http://creativecommons.org/ns#"
   xmlns:rdf="http://www.w3.org/1999/02/22-rdf-syntax-ns#"
   xmlns:svg="http://www.w3.org/2000/svg"
   xmlns="http://www.w3.org/2000/svg"
   xmlns:sodipodi="http://sodipodi.sourceforge.net/DTD/sodipodi-0.dtd"
   xmlns:inkscape="http://www.inkscape.org/namespaces/inkscape"
   width="354.33069"
   height="248.03149"
   id="svg2"
   version="1.1"
   inkscape:version="0.48.5 r10040"
   sodipodi:docname="New document 1">
  <defs
     id="defs4" />
  <sodipodi:namedview
     id="base"
     pagecolor="#ffffff"
     bordercolor="#666666"
     borderopacity="1.0"
     inkscape:pageopacity="0.0"
     inkscape:pageshadow="2"
     inkscape:zoom="2.2521335"
     inkscape:cx="177.16534"
     inkscape:cy="124.01575"
     inkscape:document-units="px"
     inkscape:current-layer="layer1"
     showgrid="false"
     units="cm"
     inkscape:window-width="958"
     inkscape:window-height="1008"
     inkscape:window-x="953"
     inkscape:window-y="0"
     inkscape:window-maximized="0" />
  <metadata
     id="metadata7">
    <rdf:RDF>
      <cc:Work
         rdf:about="">
        <dc:format>image/svg+xml</dc:format>
        <dc:type
           rdf:resource="http://purl.org/dc/dcmitype/StillImage" />
        <dc:title></dc:title>
      </cc:Work>
    </rdf:RDF>
  </metadata>
  <g
     inkscape:label="Layer 1"
     inkscape:groupmode="layer"
     id="layer1"
     transform="translate(0,-804.32938)">
    <path
       id="path2995"
       style="fill:none;stroke:#000000;stroke-width:1px;stroke-linecap:butt;stroke-linejoin:miter;stroke-opacity:1"
       d="m 43.100585,832.56928 4.985159,-8.63454 m -12.985159,8.63454 4.985159,-8.63454 m -12.985159,8.63454 4.985159,-8.63454 m -12.985159,8.63454 4.985159,-8.63454 m -12.985159,8.63454 4.985159,-8.63454 m -9.8694161,8.63454 42.1822251,0" />
    <path
       d="m 175.10058,832.56928 4.98516,-8.63454 m -12.98516,8.63454 4.98516,-8.63454 m -12.98516,8.63454 4.98516,-8.63454 m -12.98516,8.63454 4.98516,-8.63454 m -12.98516,8.63454 4.98516,-8.63454 m -9.86941,8.63454 42.18222,0"
       style="fill:none;stroke:#000000;stroke-width:1px;stroke-linecap:butt;stroke-linejoin:miter;stroke-opacity:1"
       id="path2998"
       inkscape:connector-curvature="0" />
    <path
       inkscape:connector-curvature="0"
       id="path3000"
       style="fill:none;stroke:#000000;stroke-width:1px;stroke-linecap:butt;stroke-linejoin:miter;stroke-opacity:1"
       d="m 341.10058,832.56928 4.98516,-8.63454 m -12.98516,8.63454 4.98516,-8.63454 m -12.98516,8.63454 4.98516,-8.63454 m -12.98516,8.63454 4.98516,-8.63454 m -12.98516,8.63454 4.98516,-8.63454 m -9.86941,8.63454 42.18222,0" />
    <rect
       style="fill:#808080;fill-opacity:1;stroke:#000000;stroke-width:4;stroke-linecap:round;stroke-linejoin:bevel;stroke-miterlimit:10;stroke-opacity:1;stroke-dasharray:none;stroke-dashoffset:0"
       id="rect3002"
       width="167.39684"
       height="68.379608"
       x="43.958317"
       y="67.757988"
       transform="translate(0,804.32938)" />
  </g>
</svg>
